<?xml version="1.0" encoding="utf-8"?>
<!-- Generator: Adobe Illustrator 21.0.1, SVG Export Plug-In . SVG Version: 6.00 Build 0)  -->
<svg version="1.1" xmlns="http://www.w3.org/2000/svg" xmlns:xlink="http://www.w3.org/1999/xlink" x="0px" y="0px"
	 viewBox="0 0 242.8 570" style="enable-background:new 0 0 242.8 570;" xml:space="preserve">
<style type="text/css">
	.st0{fill:url(#SVGID_1_);}
	.st1{fill:none;stroke:url(#SVGID_2_);stroke-width:0.75;stroke-miterlimit:10;}
	.st2{fill:none;stroke:url(#SVGID_3_);stroke-width:0.75;stroke-miterlimit:10;}
	.st3{fill:none;stroke:url(#SVGID_4_);stroke-width:0.75;stroke-miterlimit:10;}
	.st4{fill:none;stroke:url(#SVGID_5_);stroke-miterlimit:10;}
	.st5{fill:none;stroke:url(#SVGID_6_);stroke-width:0.75;stroke-miterlimit:10;}
	.st6{fill:none;stroke:url(#SVGID_7_);stroke-miterlimit:10;}
	.st7{fill:none;stroke:url(#SVGID_8_);stroke-miterlimit:10;}
	.st8{fill:none;stroke:url(#SVGID_9_);stroke-width:0.75;stroke-miterlimit:10;}
	.st9{fill:none;stroke:url(#SVGID_10_);stroke-width:0.75;stroke-miterlimit:10;}
	.st10{fill:none;stroke:url(#SVGID_11_);stroke-width:0.75;stroke-miterlimit:10;}
	.st11{fill:none;stroke:url(#SVGID_12_);stroke-width:0.75;stroke-miterlimit:10;}
	.st12{fill:none;stroke:url(#SVGID_13_);stroke-width:0.75;stroke-miterlimit:10;}
	.st13{fill:none;stroke:url(#SVGID_14_);stroke-width:0.75;stroke-miterlimit:10;}
	.st14{fill:none;stroke:url(#SVGID_15_);stroke-width:0.75;stroke-miterlimit:10;}
	.st15{fill:none;stroke:url(#SVGID_16_);stroke-width:0.75;stroke-miterlimit:10;}
	.st16{fill:none;stroke:url(#SVGID_17_);stroke-width:0.75;stroke-miterlimit:10;}
	.st17{fill:none;stroke:url(#SVGID_18_);stroke-width:0.75;stroke-miterlimit:10;}
	.st18{fill:none;stroke:url(#SVGID_19_);stroke-width:0.75;stroke-miterlimit:10;}
	.st19{fill:url(#SVGID_20_);}
	.st20{fill:url(#SVGID_21_);}
	.st21{fill:url(#SVGID_22_);}
	.st22{fill:url(#SVGID_23_);}
</style>
<g id="Layer_1">
	<g id="Layer_1_3_">
		<g id="Layer_1_2_">
			<g id="Layer_1_1_">
				<g id="Layer_2">
					
						<linearGradient id="SVGID_1_" gradientUnits="userSpaceOnUse" x1="224.1756" y1="-1246.0291" x2="304.1437" y2="-1246.0291" gradientTransform="matrix(1 0 0 1 0 1590)">
						<stop  offset="0" style="stop-color:#A343FF"/>
						<stop  offset="1" style="stop-color:#4CABFD"/>
						<stop  offset="1" style="stop-color:#E93E3A"/>
					</linearGradient>
					<path class="st0" d="M241.7,258.7c-7,14.4-13.7,30-11.9,45.9c1.6,13.8,9.4,26.2,11.7,39.9c4.8,28.7-15.1,55.8-17.2,84.8
						c-0.9,12.5,3,27.1,14.4,32.4c4.1,1.9,8.8,2.4,13.4,2.5c4.1,0.1,8.3,0,12.3-1c12.3-2.8,22.2-12.7,27.9-24
						c5.7-11.3,7.7-24.1,9.1-36.7c6.3-54.9,2.4-111.3-14.6-163.8c-1.5-4.6-3.2-9.3-6.9-12.4C264.7,214,246.4,249,241.7,258.7z"/>
					
						<linearGradient id="SVGID_2_" gradientUnits="userSpaceOnUse" x1="595.8032" y1="-861.5235" x2="624.6475" y2="-861.5235" gradientTransform="matrix(0.835 -0.5502 0.5502 0.835 167.0575 1602.1661)">
						<stop  offset="0" style="stop-color:#A343FF"/>
						<stop  offset="1" style="stop-color:#4CABFD"/>
						<stop  offset="1" style="stop-color:#E93E3A"/>
					</linearGradient>
					<path class="st1" d="M218.3,553.5l-16,10.5c-2.1,1.4-4.9,0.8-6.2-1.3l-10.5-15.9c-1.4-2.1-0.8-4.9,1.3-6.2l15.9-10.5
						c2.1-1.4,4.9-0.8,6.2,1.3l10.5,15.9C220.9,549.4,220.3,552.2,218.3,553.5z"/>
					
						<linearGradient id="SVGID_3_" gradientUnits="userSpaceOnUse" x1="1227.1108" y1="507.5588" x2="1239.3977" y2="507.5588" gradientTransform="matrix(9.125579e-02 -0.9958 0.9958 9.125579e-02 -407.5634 1701.4987)">
						<stop  offset="0" style="stop-color:#A343FF"/>
						<stop  offset="1" style="stop-color:#4CABFD"/>
						<stop  offset="1" style="stop-color:#E93E3A"/>
					</linearGradient>
					<path class="st2" d="M216.5,516.4l-0.7,7.8c-0.1,1-1,1.8-2,1.7l-7.8-0.7c-1-0.1-1.8-1-1.7-2l0.7-7.8c0.1-1,1-1.8,2-1.7l7.8,0.7
						C215.8,514.5,216.6,515.4,216.5,516.4z"/>
					
						<linearGradient id="SVGID_4_" gradientUnits="userSpaceOnUse" x1="842.5798" y1="-665.4078" x2="851.1998" y2="-665.4078" gradientTransform="matrix(0.7331 -0.6801 0.6801 0.7331 54.5041 1571.5662)">
						<stop  offset="0" style="stop-color:#A343FF"/>
						<stop  offset="1" style="stop-color:#4CABFD"/>
						<stop  offset="1" style="stop-color:#E93E3A"/>
					</linearGradient>
					<path class="st3" d="M227.4,508.9l-3.9,3.6c-0.5,0.5-1.3,0.4-1.8-0.1l-3.6-3.9c-0.5-0.5-0.4-1.3,0.1-1.8l3.9-3.6
						c0.5-0.5,1.3-0.4,1.8,0.1l3.6,3.9C228,507.6,227.9,508.4,227.4,508.9z"/>
					
						<linearGradient id="SVGID_5_" gradientUnits="userSpaceOnUse" x1="39.5265" y1="-2199.55" x2="57.5265" y2="-2199.55" gradientTransform="matrix(1 0 0 1 0 2742)">
						<stop  offset="0" style="stop-color:#A343FF"/>
						<stop  offset="1" style="stop-color:#4CABFD"/>
						<stop  offset="1" style="stop-color:#E93E3A"/>
					</linearGradient>
					<path class="st4" d="M47.1,534.1c5.8-1,10.8,4,9.8,9.8c-0.6,3.5-3.4,6.4-6.9,6.9c-5.8,1-10.8-4-9.8-9.8
						C40.7,537.5,43.5,534.7,47.1,534.1z"/>
					
						<linearGradient id="SVGID_6_" gradientUnits="userSpaceOnUse" x1="1205.5238" y1="332.2924" x2="1217.8103" y2="332.2924" gradientTransform="matrix(9.125579e-02 -0.9958 0.9958 9.125579e-02 -407.5634 1701.4987)">
						<stop  offset="0" style="stop-color:#A343FF"/>
						<stop  offset="1" style="stop-color:#4CABFD"/>
						<stop  offset="1" style="stop-color:#E93E3A"/>
					</linearGradient>
					<path class="st5" d="M40,521.9l-0.7,7.8c-0.1,1-1,1.8-2,1.7l-7.8-0.7c-1-0.1-1.8-1-1.7-2l0.7-7.8c0.1-1,1-1.8,2-1.7l7.8,0.7
						C39.3,520,40.1,520.9,40,521.9z"/>
					
						<linearGradient id="SVGID_7_" gradientUnits="userSpaceOnUse" x1="222.3104" y1="-2394" x2="231.3104" y2="-2394" gradientTransform="matrix(1 0 0 1 0 2742)">
						<stop  offset="0" style="stop-color:#A343FF"/>
						<stop  offset="1" style="stop-color:#4CABFD"/>
						<stop  offset="1" style="stop-color:#E93E3A"/>
					</linearGradient>
					<circle class="st6" cx="226.8" cy="348" r="4"/>
					
						<linearGradient id="SVGID_8_" gradientUnits="userSpaceOnUse" x1="228.7773" y1="-2635.5" x2="237.7773" y2="-2635.5" gradientTransform="matrix(1 0 0 1 0 2742)">
						<stop  offset="0" style="stop-color:#A343FF"/>
						<stop  offset="1" style="stop-color:#4CABFD"/>
						<stop  offset="1" style="stop-color:#E93E3A"/>
					</linearGradient>
					<circle class="st7" cx="233.3" cy="106.5" r="4"/>
					
						<linearGradient id="SVGID_9_" gradientUnits="userSpaceOnUse" x1="1381.6731" y1="510.75" x2="1397.5146" y2="510.75" gradientTransform="matrix(9.125579e-02 -0.9958 0.9958 9.125579e-02 -407.5634 1701.4987)">
						<stop  offset="0" style="stop-color:#A343FF"/>
						<stop  offset="1" style="stop-color:#4CABFD"/>
						<stop  offset="1" style="stop-color:#E93E3A"/>
					</linearGradient>
					<path class="st8" d="M235.8,359.9l-0.9,10.2c-0.1,1.3-1.3,2.4-2.6,2.2l-10.2-0.9c-1.3-0.1-2.4-1.3-2.2-2.6l0.9-10.2
						c0.1-1.3,1.3-2.4,2.6-2.2l10.2,0.9C234.9,357.4,235.9,358.6,235.8,359.9z"/>
					
						<linearGradient id="SVGID_10_" gradientUnits="userSpaceOnUse" x1="136.2229" y1="-1619.2612" x2="149.3063" y2="-1619.2612" gradientTransform="matrix(1 0 0 1 -130.3979 1923.3113)">
						<stop  offset="0" style="stop-color:#A343FF"/>
						<stop  offset="1" style="stop-color:#4CABFD"/>
						<stop  offset="1" style="stop-color:#E93E3A"/>
					</linearGradient>
					<path class="st9" d="M14,310.2h-3.3c-2.5,0-4.5-2-4.5-4.5v-3.3c0-2.5,2-4.5,4.5-4.5H14c2.5,0,4.5,2,4.5,4.5v3.3
						C18.5,308.2,16.5,310.2,14,310.2z"/>
					
						<linearGradient id="SVGID_11_" gradientUnits="userSpaceOnUse" x1="-127.4128" y1="-1682.1044" x2="-120.9451" y2="-1682.1044" gradientTransform="matrix(0.9878 0.1558 -0.1558 0.9878 -136.1388 1972.9249)">
						<stop  offset="0" style="stop-color:#A343FF"/>
						<stop  offset="1" style="stop-color:#4CABFD"/>
						<stop  offset="1" style="stop-color:#E93E3A"/>
					</linearGradient>
					<path class="st10" d="M3.6,294.9l-1.5-0.2c-1.1-0.2-1.9-1.2-1.7-2.4l0.2-1.5c0.2-1.1,1.2-1.9,2.4-1.7l1.5,0.2
						c1.1,0.2,1.9,1.2,1.7,2.4L6,293.2C5.8,294.3,4.7,295.1,3.6,294.9z"/>
					
						<linearGradient id="SVGID_12_" gradientUnits="userSpaceOnUse" x1="-1004.5211" y1="-1373.3508" x2="-998.0534" y2="-1373.3508" gradientTransform="matrix(0.7897 0.6135 -0.6135 0.7897 -49.5872 2016.4725)">
						<stop  offset="0" style="stop-color:#A343FF"/>
						<stop  offset="1" style="stop-color:#4CABFD"/>
						<stop  offset="1" style="stop-color:#E93E3A"/>
					</linearGradient>
					<path class="st11" d="M1.1,320.3l-1.2-0.9c-0.9-0.7-1.1-2-0.3-2.9l0.9-1.2c0.7-0.9,2-1.1,2.9-0.3l1.2,0.9
						c0.9,0.7,1.1,2,0.3,2.9L4,320C3.4,320.9,2,321.1,1.1,320.3z"/>
					
						<linearGradient id="SVGID_13_" gradientUnits="userSpaceOnUse" x1="31.8545" y1="-1876.5518" x2="44.938" y2="-1876.5518" gradientTransform="matrix(0.9903 0.1392 -0.1392 0.9903 -72.4242 2086.45)">
						<stop  offset="0" style="stop-color:#A343FF"/>
						<stop  offset="1" style="stop-color:#4CABFD"/>
						<stop  offset="1" style="stop-color:#E93E3A"/>
					</linearGradient>
					<path class="st12" d="M227.6,239.8l-3.3-0.5c-2.5-0.3-4.2-2.6-3.8-5.1l0.5-3.3c0.3-2.5,2.6-4.2,5.1-3.8l3.3,0.5
						c2.5,0.3,4.2,2.6,3.8,5.1l-0.5,3.3C232.3,238.4,230,240.2,227.6,239.8z"/>
					
						<linearGradient id="SVGID_14_" gradientUnits="userSpaceOnUse" x1="346.8293" y1="-1831.4984" x2="363.2598" y2="-1831.4984" gradientTransform="matrix(0.9982 -6.096585e-02 6.096585e-02 0.9982 -9.5237 2065.4519)">
						<stop  offset="0" style="stop-color:#A343FF"/>
						<stop  offset="1" style="stop-color:#4CABFD"/>
						<stop  offset="1" style="stop-color:#E93E3A"/>
					</linearGradient>
					<path class="st13" d="M235.8,223.3l-4.2,0.2c-3.2,0.3-5.9-2.2-6-5.4l-0.2-4.2c-0.3-3.2,2.2-5.9,5.4-6l4.2-0.2
						c3.2-0.3,5.9,2.2,6,5.4l0.2,4.2C241.3,220.4,238.9,223.2,235.8,223.3z"/>
					
						<linearGradient id="SVGID_15_" gradientUnits="userSpaceOnUse" x1="-781.209" y1="-1845.5742" x2="-765.8252" y2="-1845.5742" gradientTransform="matrix(0.866 0.5 -0.5 0.866 -243.8508 2138.3301)">
						<stop  offset="0" style="stop-color:#A343FF"/>
						<stop  offset="1" style="stop-color:#4CABFD"/>
						<stop  offset="1" style="stop-color:#E93E3A"/>
					</linearGradient>
					<path class="st14" d="M7.2,160.6l-3.4-2c-2.5-1.4-3.4-4.7-1.9-7.2l2-3.4c1.4-2.5,4.7-3.4,7.2-1.9l3.4,2
						c2.5,1.4,3.4,4.7,1.9,7.2l-2,3.4C13,161.2,9.7,162.1,7.2,160.6z"/>
					
						<linearGradient id="SVGID_16_" gradientUnits="userSpaceOnUse" x1="-1403.5328" y1="-1512.8018" x2="-1398.9053" y2="-1512.8018" gradientTransform="matrix(0.5845 0.8114 -0.8114 0.5845 -399.035 2187.3982)">
						<stop  offset="0" style="stop-color:#A343FF"/>
						<stop  offset="1" style="stop-color:#4CABFD"/>
						<stop  offset="1" style="stop-color:#E93E3A"/>
					</linearGradient>
					<path class="st15" d="M8.2,167.8l-0.6-0.9c-0.4-0.6-0.3-1.5,0.4-1.9l0.9-0.6c0.6-0.4,1.5-0.3,1.9,0.4l0.6,0.9
						c0.4,0.6,0.3,1.5-0.4,1.9l-0.9,0.6C9.5,168.6,8.6,168.5,8.2,167.8z"/>
					
						<linearGradient id="SVGID_17_" gradientUnits="userSpaceOnUse" x1="-1644.0834" y1="-1270.4794" x2="-1637.1403" y2="-1270.4794" gradientTransform="matrix(0.4169 0.909 -0.909 0.4169 -458.6672 2161.4797)">
						<stop  offset="0" style="stop-color:#A343FF"/>
						<stop  offset="1" style="stop-color:#4CABFD"/>
						<stop  offset="1" style="stop-color:#E93E3A"/>
					</linearGradient>
					<path class="st16" d="M9.8,142.6L9.1,141c-0.5-1.1,0-2.4,1.1-2.9l1.6-0.7c1.1-0.5,2.4,0,2.9,1.1l0.7,1.6c0.5,1.1,0,2.4-1.1,2.9
						l-1.6,0.7C11.7,144.2,10.3,143.7,9.8,142.6z"/>
					
						<linearGradient id="SVGID_18_" gradientUnits="userSpaceOnUse" x1="-1163.3724" y1="-1910.038" x2="-1153.9619" y2="-1910.038" gradientTransform="matrix(0.8116 0.5843 -0.5843 0.8116 -148.4204 2248.3533)">
						<stop  offset="0" style="stop-color:#A343FF"/>
						<stop  offset="1" style="stop-color:#4CABFD"/>
						<stop  offset="1" style="stop-color:#E93E3A"/>
					</linearGradient>
					<path class="st17" d="M25.7,25.4l-2-1.4c-1.4-1-1.7-3-0.6-4.4l1.4-2c1-1.4,3-1.7,4.4-0.6l2,1.4c1.4,1,1.7,3,0.6,4.4l-1.4,2
						C29.1,26.1,27,26.5,25.7,25.4z"/>
					
						<linearGradient id="SVGID_19_" gradientUnits="userSpaceOnUse" x1="-1633.3103" y1="-1508.1729" x2="-1620.6183" y2="-1508.1729" gradientTransform="matrix(0.5687 0.8225 -0.8225 0.5687 -301.6573 2225.2961)">
						<stop  offset="0" style="stop-color:#A343FF"/>
						<stop  offset="1" style="stop-color:#4CABFD"/>
						<stop  offset="1" style="stop-color:#E93E3A"/>
					</linearGradient>
					<path class="st18" d="M9.7,34.2l-2-2.7c-1.3-2-0.8-4.6,1.3-5.9l2.7-2c2-1.3,4.6-0.8,5.9,1.3l2,2.7c1.3,2,0.8,4.6-1.3,5.9
						l-2.7,2C13.8,36.7,11,36.2,9.7,34.2z"/>
				</g>
			</g>
		</g>
		<g id="Layer_2_1_">
			
				<linearGradient id="SVGID_20_" gradientUnits="userSpaceOnUse" x1="149.5364" y1="-470.472" x2="398.229" y2="-470.472" gradientTransform="matrix(1 0 0 1 0 530)">
				<stop  offset="0" style="stop-color:#A343FF"/>
				<stop  offset="1" style="stop-color:#4CABFD"/>
				<stop  offset="1" style="stop-color:#E93E3A"/>
			</linearGradient>
			<path class="st19" d="M176.7-21c12,6.5,7.6,24.7,18.6,29s19.2,3.9,22.4,6.2c4.7,3.3,3.9,14.9,3.4,20.7s-2.3,11.4-2.1,17.2
				c0.9,21.4,28.2,34,30.2,55.3c1.9,20.7-21.2,37.3-19.7,58c0.6,8.2,5.1,15.6,10.7,21.6c17.5,18.8,47,24.7,71,15.4
				s41.5-32.6,45.2-58.1c2.4-16.8-0.7-34.4,4.2-50.6c3-9.8,8.7-18.6,15.1-26.5c8.4-10.5,18.5-20.5,21.5-33.6c1.7-7.4,1-15.1,0-22.6
				c-1.9-14-4.9-28.3-12.8-39.9c-13.3-19.5-37.8-28-61.1-32.1c-35.3-6.3-56.4-20.6-92.2-19.9c-20.3,0.4-44.2-12.1-62.9-4.1
				C155-79.5,144.6-66.9,152-51.6C157.6-40.2,165.4-27.1,176.7-21z"/>
		</g>
	</g>
	<g id="Layer_2_2_">
		
			<linearGradient id="SVGID_21_" gradientUnits="userSpaceOnUse" x1="-157.5512" y1="459.636" x2="65.7155" y2="459.636" gradientTransform="matrix(1 0 0 -1 0 570)">
			<stop  offset="0" style="stop-color:#A343FF"/>
			<stop  offset="1" style="stop-color:#4CABFD"/>
			<stop  offset="1" style="stop-color:#E93E3A"/>
		</linearGradient>
		<path class="st20" d="M12.7,234.1c1.6-5.9,3.3-11.8,3.1-17.9C15.2,198-1,184.4-6.6,167.2c-2.8-8.6-2.9-18-0.2-26.6
			c6.3-20.2,26.4-34,32.2-54.3c3.8-13.1,0.7-28-7.9-38.6C12.2,41.4,4.7,35.3,5.2,27.1c0.5-8.5,9.6-13.8,17.9-15.5S40.5,10,47.7,5.5
			C55.1,0.9,58.9-7.7,62-15.8c3.3-8.9,6-19.4,0.8-27.4c-5.6-8.6-17.6-9.8-27.9-10.1c-48.7-1.2-99-0.2-143.9,18.8
			c-12.5,5.3-24.8,12.2-32.9,23c-4.4,5.9-7.4,12.7-9.7,19.7c-6.9,20.8-7.8,43.4-2.7,64.7c3.7,15.3,10.4,29.6,17,43.9
			c14.9,31.9,29.8,63.9,49.3,93.4c9.7,14.7,20.4,28.6,32.6,41.3c9.3,9.7,24.6,27.4,39.7,21.8C1.1,266.9,8.2,250.1,12.7,234.1z"/>
	</g>
	<linearGradient id="SVGID_22_" gradientUnits="userSpaceOnUse" x1="16.7487" y1="565.1334" x2="197.4912" y2="565.1334">
		<stop  offset="0" style="stop-color:#A343FF"/>
		<stop  offset="1" style="stop-color:#4CABFD"/>
		<stop  offset="1" style="stop-color:#E93E3A"/>
	</linearGradient>
	<path class="st21" d="M65,559.5c5.3,0.5,10.6,2,16,2.1c7.6,0.1,15.1-2.5,21-7.2c3.2-2.6,5.9-5.8,9.2-8.3c12.3-9.6,30.4-8,44.3-0.9
		c13.9,7.1,24.9,18.7,36.6,28.9c3.3,2.9,7,7.2,4.8,11c-1.2,2.1-3.6,3-5.9,3.5c-11.9,3-24.4,2.5-36.7,2c-43.4-1.6-86.9-1.7-130.4-0.3
		c-17.3,0.6,1.6-17.6,7.1-21.4C40.7,561.9,53,558.3,65,559.5z"/>
</g>
<g id="Layer_2_3_">
	<linearGradient id="SVGID_23_" gradientUnits="userSpaceOnUse" x1="-101.2264" y1="464.2989" x2="31.7618" y2="464.2989">
		<stop  offset="0" style="stop-color:#A343FF"/>
		<stop  offset="1" style="stop-color:#4CABFD"/>
		<stop  offset="1" style="stop-color:#E93E3A"/>
	</linearGradient>
	<path class="st22" d="M-51,356.7c4.5-2.4,9.5-4.1,14.5-5.2c8.7-1.9,18-2.1,26.4,0.9c8.4,3,15.8,9.4,18.6,17.9
		c5.4,16.3-6.8,35.4,0.9,50.7c1,2.1,2.4,4,3.7,5.9c12.7,18.6,20.3,41.2,18.5,63.7c-1.2,14.3-6.1,28-11.3,41.4
		c-4.2,10.8-8.8,21.7-16.9,29.9c-14.5,14.7-37.2,17.5-57.8,16.4c-6.3-0.3-12.7-1-18.3-3.8c-6-2.9-10.6-8-14.5-13.4
		c-4.6-6.2-8.6-13-10.9-20.4c-2.7-8.8-2.9-18.2-3-27.4c-0.1-8-0.2-16.2,2-23.9c2.3-8.1,6.9-15.2,10.9-22.6
		c11.9-21.9,19.1-46.4,20.7-71.2c0.5-6.9-3.2-17.3-1-23C-65.9,365.9-57.1,359.8-51,356.7z"/>
</g>
</svg>
