<?xml version="1.0" encoding="utf-8"?>
<!-- Generator: Adobe Illustrator 21.0.1, SVG Export Plug-In . SVG Version: 6.00 Build 0)  -->
<svg version="1.1" id="Layer_1" xmlns="http://www.w3.org/2000/svg" xmlns:xlink="http://www.w3.org/1999/xlink" x="0px" y="0px"
	 viewBox="0 0 330 60" style="enable-background:new 0 0 330 60;" xml:space="preserve">
<style type="text/css">
	.st0{fill:url(#SVGID_1_);}
	.st1{fill:url(#SVGID_2_);}
	.st2{fill:#4B4453;}
	.st3{fill:url(#SVGID_3_);}
	.st4{fill:#FFFFFF;}
	.st5{fill:#FCFCFC;}
	.st6{fill:none;stroke:url(#SVGID_4_);stroke-width:0.75;stroke-miterlimit:10;}
	.st7{fill:none;stroke:url(#SVGID_5_);stroke-miterlimit:10;}
	.st8{fill:none;stroke:url(#SVGID_6_);stroke-width:0.75;stroke-miterlimit:10;}
	.st9{fill:none;stroke:url(#SVGID_7_);stroke-width:0.75;stroke-miterlimit:10;}
	.st10{fill:none;stroke:url(#SVGID_8_);stroke-width:0.75;stroke-miterlimit:10;}
</style>
<g id="Layer_2">
	<g id="Layer_1_1_">
		<g>
			
				<linearGradient id="SVGID_1_" gradientUnits="userSpaceOnUse" x1="56.0746" y1="7.1962" x2="330.4896" y2="7.1962" gradientTransform="matrix(-0.8818 1.419495e-02 1.609588e-02 0.9999 340.4424 17.2148)">
				<stop  offset="0" style="stop-color:#00FFEE"/>
				<stop  offset="1" style="stop-color:#D585FF"/>
			</linearGradient>
			<path class="st0" d="M49.3,37.3l-0.1-19.6C49.1,10.3,54.8,4,61.9,4l216.2-0.6C285.2,3.3,291,9.5,291,17l0.1,19.6
				c0,7.5-5.7,13.7-12.8,13.7L62.2,50.8C55.1,51,49.2,44.8,49.3,37.3z"/>
			
				<linearGradient id="SVGID_2_" gradientUnits="userSpaceOnUse" x1="65.5264" y1="12.9444" x2="339.9469" y2="12.9444" gradientTransform="matrix(-0.8818 1.419495e-02 1.609588e-02 0.9999 340.4424 17.2148)">
				<stop  offset="0" style="stop-color:#FB4ECB"/>
				<stop  offset="1" style="stop-color:#AC26AD"/>
			</linearGradient>
			<path class="st1" d="M41,43.1l-0.1-19.6c-0.1-7.4,5.7-13.7,12.8-13.6l216.2-0.6c7-0.1,12.9,6.1,12.8,13.6l0.1,19.6
				c0,7.5-5.8,13.7-12.9,13.7L53.8,56.7C46.8,56.8,40.9,50.6,41,43.1z"/>
			<path class="st2" d="M45.1,39.7L45,20.2c-0.1-7.4,5.7-13.7,12.8-13.6L274,5.9c7-0.1,12.9,6.1,12.8,13.6l0.1,19.6
				c0.1,7.4-5.7,13.7-12.8,13.6L57.9,53.2C50.8,53.3,45.1,47.1,45.1,39.7z"/>
		</g>
	</g>
</g>
<g id="Layer_1_2_">
	
		<linearGradient id="SVGID_3_" gradientUnits="userSpaceOnUse" x1="258.9997" y1="1073.3" x2="258.9997" y2="1073.3" gradientTransform="matrix(1 -9.917678e-03 9.917678e-03 1 -10.8626 -1064.3051)">
		<stop  offset="0" style="stop-color:#A343FF"/>
		<stop  offset="1" style="stop-color:#4CABFD"/>
		<stop  offset="1" style="stop-color:#E93E3A"/>
	</linearGradient>
	<path class="st3" d="M258.8,6.4"/>
	<g>
		<path class="st4" d="M85.4,27.9l0.1,11l-2.2,0l-0.2-15.2l3.1,0l2.6,9.1l-0.1-9.1l2.1,0L91,38.8l-2.4,0L85.4,27.9z"/>
		<path class="st4" d="M94.9,30l3.3,0l0,2.2l-3.3,0l0,4.5l4.1,0l0,2.2l-6.6,0.1l-0.2-15.3l6.6-0.1l0,2.1l-4.1,0L94.9,30z"/>
		<path class="st4" d="M103,29.9l3.3,0l0,2.2l-3.3,0l0,4.5l4.1,0l0,2.2l-6.6,0.1l-0.2-15.3l6.6-0.1l0,2.1l-4.1,0L103,29.9z"/>
		<path class="st4" d="M108.5,23.5l3.8,0c1.2,0,2.1,0.4,2.7,1c0.6,0.6,0.9,1.6,0.9,2.8l0.1,7.7c0,1.2-0.3,2.2-0.9,2.8
			c-0.6,0.6-1.5,1-2.7,1l-3.8,0C108.7,38.7,108.5,23.5,108.5,23.5z M110.9,25.5l0.1,10.9l1.3,0c0.3,0,0.7-0.1,0.9-0.4
			c0.2-0.3,0.4-0.6,0.4-1.1l-0.1-7.9c0-0.5-0.1-1-0.4-1.1c-0.2-0.2-0.5-0.4-0.9-0.4C112.2,25.5,110.9,25.5,110.9,25.5z"/>
		<path class="st4" d="M123.3,38.5l-2.4,0l-0.2-15.2l2.4,0l0.1,6.6l2.7,0l-0.1-6.6l2.5,0l0.2,15.2l-2.5,0l-0.1-6.5l-2.7,0
			C123.2,32,123.3,38.5,123.3,38.5z"/>
		<path class="st4" d="M132.4,29.6l3.3,0l0,2.2l-3.3,0l0,4.5l4.1,0l0,2.2l-6.5,0.1l-0.2-15.3l6.6-0.1l0,2.1l-4.1,0l0,4.3L132.4,29.6
			z"/>
		<path class="st4" d="M137.9,23.2l2.5,0l0.1,13l3.9,0l0,2.2l-6.3,0.1L137.9,23.2L137.9,23.2z"/>
		<path class="st4" d="M148.9,23.1c1.2,0,2.1,0.4,2.7,1c0.6,0.6,0.9,1.6,0.9,2.8l0,2c0,1.2-0.3,2.2-0.9,2.8c-0.6,0.6-1.5,1-2.7,1
			l-1.1,0l0.1,5.7l-2.4,0l-0.2-15.3L148.9,23.1z M147.8,25.2l0.1,5.2l1.1,0c0.4,0,0.7-0.1,0.9-0.3c0.2-0.2,0.3-0.6,0.3-1.1l0-2.3
			c0-0.5-0.1-1-0.3-1.1c-0.2-0.2-0.5-0.3-0.9-0.3L147.8,25.2L147.8,25.2z"/>
		<path class="st4" d="M155.5,34.9c-0.1-0.3-0.1-0.6-0.1-1c0-0.5,0.1-1.1,0.2-1.4c0.1-0.4,0.3-0.8,0.4-1.1c0.2-0.3,0.4-0.7,0.6-1
			c0.3-0.4,0.4-0.6,0.6-1.1c0.2-0.4,0.4-0.8,0.4-1.2s0.2-1.1,0.2-1.7c0-0.5-0.1-1-0.4-1.1c-0.2-0.3-0.5-0.4-0.9-0.4
			s-0.7,0.1-0.9,0.4c-0.2,0.3-0.4,0.6-0.4,1.1l0,1.7l-2.3,0l0-1.5c0-1.2,0.3-2.2,0.9-2.8c0.6-0.6,1.5-1,2.6-1c1.1,0,2,0.4,2.6,1
			c0.6,0.6,0.9,1.6,0.9,2.8c0,0.7-0.1,1.2-0.2,1.8c-0.2,0.5-0.4,1-0.5,1.3c-0.2,0.3-0.4,0.8-0.7,1.1c-0.3,0.3-0.4,0.6-0.7,1
			c-0.2,0.4-0.3,0.7-0.5,1c-0.2,0.4-0.2,0.8-0.2,1.2s0,0.6,0.1,0.9C157.4,34.9,155.5,34.9,155.5,34.9z M157.7,35.9l0,2.3l-2.3,0
			l0-2.3L157.7,35.9z"/>
		<path class="st5" d="M170,33.7l1.5-10.9l3.3,0l0.2,15.2l-2.3,0L172.6,27L171,37.9l-2.3,0l-1.9-10.8l0.1,10.8l-2.1,0l-0.1-15.1
			l3.3,0L170,33.7z"/>
		<path class="st5" d="M179,29.2l3.3,0l0,2.2l-3.3,0l0,4.5l4.1,0l0,2.2l-6.6,0.1l-0.2-15.3l6.6-0.1l0,2.1l-4.1,0L179,29.2z"/>
		<path class="st5" d="M184.3,26.3c0-1.2,0.3-2.2,0.9-2.8c0.6-0.6,1.5-1,2.6-1c1.1,0,2,0.4,2.6,1c0.6,0.6,0.9,1.6,0.9,2.8l0,0.6
			l-2.3,0l0-0.8c0-0.5-0.1-1-0.3-1.1c-0.2-0.3-0.5-0.3-0.9-0.3s-0.7,0.1-0.9,0.3c-0.2,0.3-0.3,0.6-0.3,1.1s0.1,1,0.3,1.4
			c0.3,0.4,0.5,0.8,0.9,1.1c0.3,0.3,0.7,0.7,1.1,1c0.4,0.4,0.8,0.7,1.1,1.1c0.3,0.4,0.6,0.9,0.9,1.4c0.3,0.5,0.3,1.1,0.3,1.9
			c0,1.2-0.3,2.2-0.9,2.8c-0.6,0.7-1.5,1-2.6,1c-1.1,0-2.1-0.4-2.6-1c-0.5-0.6-0.9-1.6-0.9-2.8l0-1l2.3,0l0,1.2c0,0.5,0.1,1,0.3,1.1
			c0.3,0.2,0.5,0.4,0.9,0.4c0.4,0,0.7-0.1,0.9-0.4c0.2-0.3,0.3-0.6,0.3-1.1s-0.1-1-0.3-1.4s-0.5-0.8-0.9-1.1
			c-0.3-0.4-0.7-0.7-1.1-1.1c-0.4-0.3-0.8-0.7-1.1-1.1c-0.3-0.4-0.6-0.9-0.9-1.4C184.4,27.7,184.3,27,184.3,26.3z"/>
		<path class="st5" d="M192.4,26.2c0-1.2,0.3-2.2,0.9-2.8c0.6-0.6,1.5-1,2.6-1s2,0.4,2.6,1c0.6,0.6,0.9,1.6,0.9,2.8l0,0.6l-2.3,0
			l0-0.8c0-0.5-0.1-1-0.3-1.1c-0.2-0.3-0.5-0.3-0.9-0.3s-0.7,0.1-0.9,0.3c-0.2,0.3-0.4,0.6-0.4,1.1c0,0.5,0.1,1,0.4,1.4
			c0.3,0.4,0.5,0.8,0.9,1.1c0.3,0.3,0.7,0.7,1.1,1c0.4,0.4,0.8,0.7,1.1,1.1c0.4,0.4,0.6,0.9,0.9,1.4c0.3,0.5,0.3,1.1,0.3,1.9
			c0,1.2-0.3,2.2-0.9,2.8c-0.6,0.7-1.5,1-2.6,1c-1.1,0-2.1-0.4-2.6-1c-0.5-0.6-0.9-1.6-0.9-2.8l0-1l2.3,0l0,1.2c0,0.5,0.1,1,0.4,1.1
			c0.3,0.2,0.5,0.4,0.9,0.4c0.3,0,0.7-0.1,0.9-0.4c0.2-0.3,0.3-0.6,0.3-1.1c0-0.5-0.1-1-0.3-1.4c-0.3-0.4-0.5-0.8-0.9-1.1
			c-0.4-0.4-0.7-0.7-1.1-1.1c-0.4-0.3-0.8-0.7-1.1-1.1c-0.3-0.4-0.6-0.9-0.9-1.4C192.5,27.6,192.4,26.9,192.4,26.2z"/>
		<path class="st5" d="M208.7,37.7l-2.4,0l-0.4-2.8l-3,0l-0.4,2.8l-2.2,0l2.3-15.2l3.5,0L208.7,37.7z M203.2,32.9l2.3,0l-1.2-7.7
			L203.2,32.9z"/>
		<path class="st5" d="M213.4,29.1l3.3,0l0,4.8c0,1.2-0.3,2.2-0.9,2.8c-0.6,0.6-1.5,1-2.6,1c-1.1,0-2.1-0.4-2.6-1s-0.9-1.6-0.9-2.8
			l-0.1-7.9c0-1.2,0.3-2.2,0.9-2.8s1.5-1,2.6-1c1.1,0,2.1,0.4,2.6,1c0.5,0.6,0.9,1.6,0.9,2.8l0,1.5l-2.3,0l0-1.7
			c0-0.5-0.1-1-0.4-1.1c-0.3-0.3-0.5-0.3-0.9-0.3c-0.3,0-0.7,0.1-0.9,0.3c-0.2,0.3-0.3,0.6-0.3,1.1l0.1,8.2c0,0.5,0.1,1,0.3,1.1
			c0.3,0.2,0.5,0.4,0.9,0.4s0.7-0.1,0.9-0.4c0.3-0.2,0.4-0.6,0.4-1.1l0-2.8l-1.1,0L213.4,29.1L213.4,29.1z"/>
		<path class="st5" d="M220.6,28.8l3.3,0l0,2.2l-3.3,0l0,4.5l4.1,0l0,2.2l-6.6,0.1L218,22.4l6.6-0.1l0,2.1l-4.1,0L220.6,28.8z"/>
		<path class="st5" d="M231.8,22.2l0.1,11.7c0,0.5,0.1,1,0.3,1.1c0.3,0.2,0.5,0.4,0.9,0.4c0.4,0,0.7-0.1,0.9-0.4
			c0.3-0.2,0.3-0.6,0.3-1.1l-0.1-11.7l2.3,0l0.1,11.6c0,1.2-0.3,2.2-0.9,2.8c-0.6,0.6-1.5,1-2.6,1c-1.1,0-2.1-0.4-2.6-1
			c-0.5-0.6-0.9-1.6-0.9-2.8l-0.1-11.6L231.8,22.2z"/>
		<path class="st5" d="M237.9,25.8c0-1.2,0.3-2.2,0.9-2.8c0.6-0.6,1.5-1,2.6-1c1.1,0,2,0.4,2.6,1c0.6,0.6,0.9,1.6,0.9,2.8l0,0.6
			l-2.3,0l0-0.8c0-0.5-0.1-1-0.4-1.1c-0.3-0.1-0.5-0.3-0.9-0.3c-0.3,0-0.7,0.1-0.9,0.3c-0.2,0.3-0.3,0.6-0.3,1.1
			c0,0.5,0.1,1,0.3,1.4c0.3,0.4,0.5,0.8,0.9,1.1c0.4,0.3,0.7,0.7,1.1,1c0.4,0.4,0.8,0.7,1.1,1.1s0.6,0.9,0.9,1.4
			c0.3,0.5,0.3,1.1,0.3,1.9c0,1.2-0.3,2.2-0.9,2.8c-0.6,0.6-1.5,1-2.6,1c-1.1,0-2.1-0.4-2.6-1c-0.5-0.6-0.9-1.6-0.9-2.8l0-1l2.3,0
			l0,1.2c0,0.5,0.1,1,0.3,1.1c0.3,0.2,0.5,0.4,0.9,0.4c0.4,0,0.7-0.1,0.9-0.4c0.3-0.2,0.4-0.6,0.4-1.1c0-0.5-0.1-1-0.4-1.4
			s-0.5-0.8-0.9-1.1c-0.3-0.4-0.7-0.7-1.1-1.1c-0.4-0.3-0.8-0.7-1.1-1.1c-0.3-0.4-0.6-0.9-0.9-1.4C238.1,27.2,237.9,26.5,237.9,25.8
			z"/>
		<path class="st5" d="M246.6,34l-0.4-5.5l-0.1-6.4l2.4,0l0.1,6.4l-0.2,5.5L246.6,34z M248.8,35l0,2.3l-2.3,0l0-2.3L248.8,35z"/>
	</g>
	
		<linearGradient id="SVGID_4_" gradientUnits="userSpaceOnUse" x1="-136.2406" y1="-439.0753" x2="-120.3992" y2="-439.0753" gradientTransform="matrix(8.137538e-02 -0.9967 -0.9967 -8.137538e-02 -147.2556 -148.2053)">
		<stop  offset="0" style="stop-color:#A343FF"/>
		<stop  offset="1" style="stop-color:#4CABFD"/>
		<stop  offset="1" style="stop-color:#E93E3A"/>
	</linearGradient>
	<path class="st6" d="M287.8,10.9L287,21.1c-0.1,1.3-1.3,2.4-2.6,2.2l-10.2-0.8c-1.3-0.1-2.4-1.3-2.2-2.6l0.8-10.2
		c0.1-1.3,1.3-2.4,2.6-2.2l10.2,0.8C286.8,8.4,287.9,9.6,287.8,10.9z"/>
	
		<linearGradient id="SVGID_5_" gradientUnits="userSpaceOnUse" x1="259.8221" y1="647.6" x2="268.8221" y2="647.6" gradientTransform="matrix(1 -9.917678e-03 -9.917678e-03 -1 6.5727 693.6105)">
		<stop  offset="0" style="stop-color:#A343FF"/>
		<stop  offset="1" style="stop-color:#4CABFD"/>
		<stop  offset="1" style="stop-color:#E93E3A"/>
	</linearGradient>
	<ellipse transform="matrix(1 -9.917665e-03 9.917665e-03 1 -0.4176 2.6247)" class="st7" cx="264.4" cy="43.4" rx="4" ry="4"/>
	
		<linearGradient id="SVGID_6_" gradientUnits="userSpaceOnUse" x1="-154.6153" y1="-226.3439" x2="-144.0109" y2="-226.3439" gradientTransform="matrix(-0.7473 -0.6644 -0.6644 0.7473 -200.0509 119.3177)">
		<stop  offset="0" style="stop-color:#A343FF"/>
		<stop  offset="1" style="stop-color:#4CABFD"/>
		<stop  offset="1" style="stop-color:#E93E3A"/>
	</linearGradient>
	<path class="st8" d="M62.7,43.5l5,4.5c0.7,0.6,0.7,1.6,0.1,2.2l-4.5,5c-0.6,0.7-1.6,0.7-2.2,0.1l-5-4.5c-0.7-0.6-0.7-1.6-0.1-2.2
		l4.5-5C61,43,62,42.9,62.7,43.5z"/>
	
		<linearGradient id="SVGID_7_" gradientUnits="userSpaceOnUse" x1="-132.5321" y1="-255.4593" x2="-123.3291" y2="-255.4593" gradientTransform="matrix(-0.9815 -0.1918 -0.1918 0.9815 -129.7546 255.6259)">
		<stop  offset="0" style="stop-color:#A343FF"/>
		<stop  offset="1" style="stop-color:#4CABFD"/>
		<stop  offset="1" style="stop-color:#E93E3A"/>
	</linearGradient>
	<path class="st9" d="M42.8,24.7l5.6,1c0.7,0.2,1.2,0.9,1.1,1.6l-1.1,5.7c-0.2,0.7-0.9,1.2-1.6,1.1l-5.6-1c-0.7-0.2-1.2-0.9-1.1-1.6
		l1-5.6C41.3,25.1,42.1,24.6,42.8,24.7z"/>
	
		<linearGradient id="SVGID_8_" gradientUnits="userSpaceOnUse" x1="-140.8741" y1="-256.3488" x2="-129.2893" y2="-256.3488" gradientTransform="matrix(-0.7473 -0.6644 -0.6644 0.7473 -200.0509 119.3177)">
		<stop  offset="0" style="stop-color:#A343FF"/>
		<stop  offset="1" style="stop-color:#4CABFD"/>
		<stop  offset="1" style="stop-color:#E93E3A"/>
	</linearGradient>
	<path class="st10" d="M72.1,11l5.4,4.9c0.7,0.6,0.8,1.8,0.1,2.5l-4.7,5.4c-0.6,0.7-1.8,0.8-2.5,0.1L65,19.1
		c-0.7-0.6-0.8-1.8-0.1-2.5l4.9-5.4C70.3,10.5,71.4,10.3,72.1,11z"/>
</g>
</svg>
