<?xml version="1.0" encoding="utf-8"?>
<!-- Generator: Adobe Illustrator 21.0.1, SVG Export Plug-In . SVG Version: 6.00 Build 0)  -->
<svg version="1.1" id="Layer_1" xmlns="http://www.w3.org/2000/svg" xmlns:xlink="http://www.w3.org/1999/xlink" x="0px" y="0px"
	 viewBox="0 0 330 60" style="enable-background:new 0 0 330 60;" xml:space="preserve">
<style type="text/css">
	.st0{fill:url(#SVGID_1_);}
	.st1{fill:url(#SVGID_2_);}
	.st2{fill:url(#SVGID_3_);}
	.st3{fill:url(#SVGID_4_);}
	.st4{fill:#FCFCFC;}
	.st5{fill:none;stroke:#FCFCFC;stroke-miterlimit:10;}
	.st6{fill:none;stroke:url(#SVGID_5_);stroke-width:0.75;stroke-miterlimit:10;}
	.st7{fill:none;stroke:url(#SVGID_6_);stroke-width:0.75;stroke-miterlimit:10;}
	.st8{fill:none;stroke:url(#SVGID_7_);stroke-width:0.75;stroke-miterlimit:10;}
	.st9{fill:none;stroke:url(#SVGID_8_);stroke-width:0.75;stroke-miterlimit:10;}
	.st10{fill:none;stroke:url(#SVGID_9_);stroke-width:0.75;stroke-miterlimit:10;}
</style>
<g id="Layer_1_1_">
	<g>
		
			<linearGradient id="SVGID_1_" gradientUnits="userSpaceOnUse" x1="21.6977" y1="7.7291" x2="296.2231" y2="7.7291" gradientTransform="matrix(0.8818 1.215663e-02 -1.378411e-02 1 21.8354 17.5519)">
			<stop  offset="0" style="stop-color:#00FFEE"/>
			<stop  offset="1" style="stop-color:#D585FF"/>
		</linearGradient>
		<path class="st0" d="M269.9,50.6l-216.2,0c-7.1-0.1-12.8-6.2-12.8-13.7L41,17.3c0-7.5,5.8-13.7,12.9-13.6l216.2,0.1
			c7.1,0,12.9,6.2,12.8,13.6L282.8,37C282.8,44.5,277,50.7,269.9,50.6z"/>
		
			<linearGradient id="SVGID_2_" gradientUnits="userSpaceOnUse" x1="31.1923" y1="13.379" x2="305.7177" y2="13.379" gradientTransform="matrix(0.8818 1.215663e-02 -1.378411e-02 1 21.8354 17.5519)">
			<stop  offset="0" style="stop-color:#FB4ECB"/>
			<stop  offset="1" style="stop-color:#AC26AD"/>
		</linearGradient>
		<path class="st1" d="M278.3,56.4l-216.2,0c-7.1-0.1-12.9-6.2-12.9-13.7l0.1-19.6c0-7.5,5.9-13.7,12.9-13.6l216.2,0.1
			c7.1,0,12.9,6.2,12.8,13.6l-0.1,19.6C291.1,50.4,285.4,56.5,278.3,56.4z"/>
		<linearGradient id="SVGID_3_" gradientUnits="userSpaceOnUse" x1="204.112" y1="-36.1861" x2="128.1587" y2="95.3689">
			<stop  offset="0" style="stop-color:#A343FF"/>
			<stop  offset="1" style="stop-color:#4CABFD"/>
			<stop  offset="1" style="stop-color:#E93E3A"/>
		</linearGradient>
		<path class="st2" d="M274.2,52.9L58,53c-7.1,0-12.9-6.2-12.8-13.6l0.1-19.6c0-7.5,5.9-13.7,12.9-13.6l216.2,0.1
			c7.1,0,12.9,6.2,12.8,13.6l-0.1,19.6C287.1,46.8,281.3,53,274.2,52.9z"/>
	</g>
</g>
<linearGradient id="SVGID_4_" gradientUnits="userSpaceOnUse" x1="259" y1="-291.3" x2="259" y2="-291.3" gradientTransform="matrix(1 0 0 -1 0 -284)">
	<stop  offset="0" style="stop-color:#A343FF"/>
	<stop  offset="1" style="stop-color:#4CABFD"/>
	<stop  offset="1" style="stop-color:#E93E3A"/>
</linearGradient>
<path class="st3" d="M259,7.3"/>
<g>
	<g>
		<path class="st4" d="M108,32.3v2.2c0,1.4-0.4,2.4-1,3.2s-1.7,1.2-3,1.2s-2.3-0.4-3-1.2c-0.6-0.8-1-1.8-1-3.2v-8.9
			c0-1.4,0.4-2.4,1-3.2c0.6-0.8,1.7-1.2,3-1.2s2.3,0.4,3,1.2s1,1.8,1,3.2v1.5h-2.6v-1.8c0-0.6-0.1-1-0.4-1.3s-0.6-0.4-1-0.4
			s-0.8,0.1-1,0.4c-0.3,0.3-0.4,0.6-0.4,1.3v9.3c0,0.6,0.1,1,0.4,1.3s0.6,0.4,1,0.4s0.8-0.1,1-0.4s0.4-0.6,0.4-1.3v-2.4
			C105.4,32.2,108,32.2,108,32.3z"/>
		<path class="st4" d="M112.4,38.5h-2.7V21.4h2.7v7.3h3.1v-7.3h2.7v17.1h-2.7v-7.3h-3.1V38.5z"/>
		<path class="st4" d="M128.9,38.5h-2.7l-0.5-3.1h-3.3l-0.5,3.1h-2.4l2.7-17.1h4L128.9,38.5z M122.7,33.1h2.6l-1.3-8.6L122.7,33.1z"
			/>
		<path class="st4" d="M128.4,21.4h8.4v2.4H134v14.7h-2.7V24h-2.8L128.4,21.4L128.4,21.4z"/>
		<path class="st4" d="M147.7,29.5l-1,9.1H143l-2-17.1h2.6l1.7,13.4l1.3-13.5h2.6l1.3,13.6l1.4-13.6h2.3l-1.9,17.1h-3.6L147.7,29.5z
			"/>
		<path class="st4" d="M155.5,21.4h2.7v17.1h-2.7V21.4z"/>
		<path class="st4" d="M159.4,21.4h8.4v2.4H165v14.7h-2.7V24h-2.8C159.4,24,159.4,21.4,159.4,21.4z"/>
		<path class="st4" d="M171.6,38.5h-2.7V21.4h2.7v7.3h3.1v-7.3h2.7v17.1h-2.7v-7.3h-3.1V38.5z"/>
		<path class="st4" d="M185.8,21.4v13.3c0,0.6,0.1,1,0.4,1.3c0.3,0.3,0.6,0.4,1,0.4s0.8-0.1,1-0.4c0.3-0.3,0.4-0.6,0.4-1.3V21.4h2.6
			v13c0,1.4-0.4,2.4-1,3.2s-1.7,1.2-3,1.2s-2.3-0.4-3-1.2c-0.6-0.8-1-1.8-1-3.2v-13C183.2,21.4,185.8,21.4,185.8,21.4z"/>
		<path class="st4" d="M192.6,25.5c0-1.4,0.4-2.4,1-3.2c0.6-0.8,1.7-1.2,3-1.2s2.3,0.4,3,1.2s1,1.8,1,3.2v0.6H198v-0.8
			c0-0.6-0.1-1-0.4-1.3s-0.5-0.4-1-0.4c-0.4,0-0.8,0.1-1,0.4c-0.3,0.3-0.4,0.6-0.4,1.3s0.1,1.2,0.4,1.5c0.3,0.4,0.6,0.9,1,1.3
			s0.8,0.8,1.3,1.2c0.4,0.4,0.9,0.8,1.3,1.3c0.4,0.5,0.8,1,1,1.7c0.3,0.6,0.4,1.3,0.4,2.2c0,1.4-0.4,2.4-1,3.2s-1.7,1.2-3,1.2
			s-2.3-0.4-3-1.2c-0.6-0.8-1-1.8-1-3.2v-1.2h2.6v1.3c0,0.6,0.1,1,0.4,1.3c0.3,0.3,0.6,0.4,1,0.4s0.8-0.1,1-0.4
			c0.3-0.3,0.4-0.6,0.4-1.3c0-0.6-0.1-1.2-0.4-1.5c-0.3-0.4-0.6-0.9-1-1.3c-0.4-0.4-0.8-0.8-1.3-1.2c-0.4-0.4-0.9-0.8-1.3-1.3
			c-0.4-0.5-0.8-1-1-1.7C192.7,27,192.6,26.5,192.6,25.5z"/>
		<path class="st4" d="M208.4,35.9v2.6h-2.6v-2.6H208.4z"/>
	</g>
	<path class="st5" d="M229.6,19.7c-5.6-0.4-10.5,3.6-10.9,8.9c-0.2,3,1,5.7,3.1,7.7l-0.2,3.6l3.6-1.6c0.9,0.3,1.9,0.5,3,0.7
		c5.6,0.4,10.5-3.6,10.9-8.9C239.4,24.8,235.2,20.1,229.6,19.7z"/>
	<polygon class="st4" points="221.8,31.9 227.2,29.6 229.6,32.8 235.7,27.3 230.3,29.5 227.9,26.6 	"/>
</g>
<linearGradient id="SVGID_5_" gradientUnits="userSpaceOnUse" x1="-365.0741" y1="-207.1987" x2="-352.3634" y2="-207.1987" gradientTransform="matrix(0.9036 -0.4284 -0.4284 -0.9036 283.3217 -296.825)">
	<stop  offset="0" style="stop-color:#A343FF"/>
	<stop  offset="1" style="stop-color:#4CABFD"/>
	<stop  offset="1" style="stop-color:#E93E3A"/>
</linearGradient>
<path class="st6" d="M54.2,47.7l-7.3,3.5c-1,0.4-2.1,0-2.5-1l-3.5-7.3c-0.4-1,0-2.1,1-2.5l7.3-3.5c1-0.4,2.1,0,2.5,1l3.5,7.3
	C55.5,46.1,55.1,47.3,54.2,47.7z"/>
<linearGradient id="SVGID_6_" gradientUnits="userSpaceOnUse" x1="-198.3545" y1="-439.2566" x2="-186.0677" y2="-439.2566" gradientTransform="matrix(0.3677 -0.93 -0.93 -0.3677 -68.331 -292.2065)">
	<stop  offset="0" style="stop-color:#A343FF"/>
	<stop  offset="1" style="stop-color:#4CABFD"/>
	<stop  offset="1" style="stop-color:#E93E3A"/>
</linearGradient>
<path class="st7" d="M276.3,46.5l-2.9,7.2c-0.4,0.9-1.5,1.4-2.4,1l-7.2-2.9c-0.9-0.4-1.4-1.5-1-2.4l2.9-7.2c0.4-0.9,1.5-1.4,2.4-1
	l7.2,2.9C276.1,44.5,276.7,45.6,276.3,46.5z"/>
<linearGradient id="SVGID_7_" gradientUnits="userSpaceOnUse" x1="-46.4733" y1="-430.0467" x2="-37.8533" y2="-430.0467" gradientTransform="matrix(0.7331 -0.6801 -0.6801 -0.7331 148.9244 -327.8325)">
	<stop  offset="0" style="stop-color:#A343FF"/>
	<stop  offset="1" style="stop-color:#4CABFD"/>
	<stop  offset="1" style="stop-color:#E93E3A"/>
</linearGradient>
<path class="st8" d="M415.1,17.2l-3.9,3.6c-0.5,0.5-1.3,0.4-1.8-0.1l-3.6-3.9c-0.5-0.5-0.4-1.3,0.1-1.8l3.9-3.6
	c0.5-0.5,1.3-0.4,1.8,0.1l3.6,3.9C415.7,15.9,415.6,16.7,415.1,17.2z"/>
<linearGradient id="SVGID_8_" gradientUnits="userSpaceOnUse" x1="-127.5403" y1="-432.8688" x2="-115.2535" y2="-432.8688" gradientTransform="matrix(7.512148e-02 -0.9971 -0.9971 -7.512148e-02 -148.3669 -146.2344)">
	<stop  offset="0" style="stop-color:#A343FF"/>
	<stop  offset="1" style="stop-color:#4CABFD"/>
	<stop  offset="1" style="stop-color:#E93E3A"/>
</linearGradient>
<path class="st9" d="M280.2,3.8l-0.6,7.8c-0.1,1-1,1.8-2,1.7l-7.8-0.6c-1-0.1-1.8-1-1.7-2l0.6-7.8c0.1-1,1-1.8,2-1.7l7.8,0.6
	C279.5,2,280.3,2.8,280.2,3.8z"/>
<linearGradient id="SVGID_9_" gradientUnits="userSpaceOnUse" x1="-305.7961" y1="-186.73" x2="-297.1761" y2="-186.73" gradientTransform="matrix(0.722 -0.6919 -0.6919 -0.722 143.1324 -327.5111)">
	<stop  offset="0" style="stop-color:#A343FF"/>
	<stop  offset="1" style="stop-color:#4CABFD"/>
	<stop  offset="1" style="stop-color:#E93E3A"/>
</linearGradient>
<path class="st10" d="M59.3,16.9l-3.8,3.7c-0.5,0.5-1.3,0.4-1.8-0.1L50,16.7c-0.5-0.5-0.4-1.3,0.1-1.8l3.8-3.7
	c0.5-0.5,1.3-0.4,1.8,0.1l3.7,3.8C59.9,15.6,59.8,16.4,59.3,16.9z"/>
<g id="Layer_2">
</g>
</svg>
