<?xml version="1.0" encoding="utf-8"?>
<!-- Generator: Adobe Illustrator 21.0.0, SVG Export Plug-In . SVG Version: 6.00 Build 0)  -->
<svg version="1.1" id="Layer_1" xmlns="http://www.w3.org/2000/svg" xmlns:xlink="http://www.w3.org/1999/xlink" x="0px" y="0px"
	 viewBox="0 0 1337 768" style="enable-background:new 0 0 1337 768;" xml:space="preserve">
<style type="text/css">
	.st0{fill:url(#SVGID_1_);}
	.st1{fill:#FFFFFF;}
	.st2{opacity:0.5;}
	.st3{fill:#F9F9F9;}
	.st4{fill:none;stroke:#F9F9F9;stroke-miterlimit:10;stroke-opacity:0.31;}
</style>
<g id="Layer_2_1_">
	
		<linearGradient id="SVGID_1_" gradientUnits="userSpaceOnUse" x1="559.9265" y1="744.4639" x2="134.3121" y2="7.279" gradientTransform="matrix(1 0 0 -1 0 770)">
		<stop  offset="0" style="stop-color:#A343FF"/>
		<stop  offset="1" style="stop-color:#0672FD"/>
		<stop  offset="1" style="stop-color:#E93E3A"/>
	</linearGradient>
	<path class="st0" d="M942,0c-23.5,12.5-198.6,109.4-222.1,296c-7.6,60.3,2.9,112.4,14.8,149.6c25.4,72,63.8,92.3,62.6,140.1
		c-1.3,53.7-48.5,87.6-93,124.3c-35.5,29.3-69.8,47.2-94.4,58.1c-203,0-406,0-609,0C1,511.9,1,256,1,0C314.7,0,628.3,0,942,0z"/>
</g>
<g>
	<path class="st1" d="M73.8,180.9c2.7,0,5,0.4,6.8,1.3c1.9,0.9,3.4,2.1,4.6,3.7c1.2,1.6,2.1,3.4,2.7,5.6c0.6,2.1,0.9,4.5,0.9,7v1.5
		h-4.4v-1.8c0-1.9-0.2-3.6-0.6-5.2c-0.4-1.6-1-3-1.8-4.1c-0.8-1.2-1.9-2.1-3.3-2.8c-1.3-0.7-3-1-4.8-1c-3.8,0-6.5,1.2-8.1,3.7
		c-1.6,2.4-2.4,5.6-2.4,9.3c0,2.9,0.6,5.3,1.9,7.3c1.2,2,2.8,3.8,4.7,5.5c1.9,1.6,4,3.2,6.1,4.7c2.2,1.5,4.2,3.2,6.1,4.9
		c1.9,1.8,3.5,3.8,4.7,6.1s1.9,5,1.9,8.3c0,2.6-0.3,4.9-0.9,7s-1.5,4-2.7,5.6s-2.8,2.8-4.7,3.7c-1.9,0.9-4.2,1.3-6.9,1.3
		c-2.7,0-5-0.4-6.9-1.3s-3.5-2.1-4.7-3.7s-2.1-3.4-2.7-5.6c-0.6-2.1-0.9-4.5-0.9-7v-3.6H63v3.9c0,3.8,0.8,6.9,2.4,9.3
		c1.6,2.4,4.4,3.7,8.3,3.7s6.6-1.2,8.3-3.7c1.6-2.4,2.4-5.5,2.4-9.3c0-2.8-0.6-5.2-1.9-7.2c-1.2-2-2.8-3.8-4.7-5.5
		c-1.9-1.6-4-3.2-6.1-4.7c-2.2-1.5-4.2-3.1-6.1-4.9c-1.9-1.8-3.5-3.8-4.7-6.1s-1.9-5.1-1.9-8.4c0-5.3,1.2-9.5,3.6-12.7
		C64.8,182.6,68.6,180.9,73.8,180.9z"/>
	<path class="st1" d="M108.2,251.9v-66.2H94v-4.2h33.3v4.2h-14.4v66.2H108.2z"/>
	<path class="st1" d="M135.9,236.3l-3.5,15.6h-4.2l15.4-70.5h6.7l15.7,70.5h-4.6l-3.5-15.6H135.9z M136.6,232.3h20.5l-10.4-45.6
		L136.6,232.3z"/>
	<path class="st1" d="M187.7,181.5c5.4,0,9.2,1.4,11.6,4.2c2.3,2.8,3.5,6.7,3.5,11.7v6.1c0,8.2-3.4,13-10.2,14.6
		c3.6,0.8,6.2,2.4,7.8,4.9s2.4,5.6,2.4,9.5v11c0,1.5,0.1,3,0.3,4.5s0.7,2.8,1.4,4h-4.8c-0.6-1.1-1-2.3-1.2-3.6s-0.3-2.9-0.3-4.9
		v-11.1c0-2.3-0.3-4.3-0.9-5.8c-0.6-1.5-1.5-2.8-2.7-3.7s-2.6-1.5-4.2-1.9c-1.6-0.4-3.4-0.6-5.4-0.6h-7.3v31.5H173v-70.4H187.7z
		 M185.1,216.2c2.1,0,3.9-0.2,5.5-0.5s3-0.9,4.1-1.8c1.1-0.9,2-2.1,2.6-3.6s0.9-3.5,0.9-5.8v-6.6c0-3.8-0.8-6.8-2.4-8.9
		c-1.6-2.1-4.3-3.2-8.2-3.2h-10v30.5L185.1,216.2L185.1,216.2z"/>
	<path class="st1" d="M223.8,251.9v-66.2h-14.3v-4.2h33.3v4.2h-14.4v66.2H223.8z"/>
	<path class="st1" d="M278.6,224.9l-15.8-43.4h4.8l13.5,37l13.5-37h4.5l-15.9,43.4V252h-4.6V224.9z"/>
	<path class="st1" d="M304.1,198.7c0-2.5,0.3-4.9,0.9-7.1c0.6-2.2,1.5-4.1,2.8-5.6c1.2-1.6,2.8-2.8,4.8-3.7c1.9-0.9,4.3-1.4,6.9-1.4
		c2.7,0,5,0.5,7,1.4s3.6,2.1,4.9,3.7c1.3,1.6,2.2,3.5,2.8,5.6c0.6,2.2,0.9,4.5,0.9,7.1v36c0,2.6-0.3,4.9-0.9,7.1s-1.5,4.1-2.8,5.6
		c-1.3,1.6-2.9,2.8-4.9,3.7s-4.3,1.4-7,1.4s-5-0.5-6.9-1.4s-3.5-2.1-4.8-3.7c-1.2-1.6-2.2-3.5-2.8-5.6c-0.6-2.2-0.9-4.5-0.9-7.1
		V198.7z M308.7,235c0,3.8,0.8,7,2.5,9.5c1.6,2.5,4.4,3.8,8.3,3.8s6.7-1.3,8.4-3.8s2.6-5.7,2.6-9.5v-36.6c0-3.8-0.9-7-2.6-9.5
		s-4.5-3.8-8.4-3.8s-6.7,1.3-8.3,3.8c-1.6,2.5-2.5,5.7-2.5,9.5V235z"/>
	<path class="st1" d="M347.1,234.9c0,1.9,0.2,3.6,0.6,5.3c0.4,1.6,1,3.1,1.8,4.3s1.9,2.1,3.3,2.8c1.3,0.7,3,1,4.9,1s3.6-0.3,4.9-1
		s2.4-1.6,3.3-2.8c0.8-1.2,1.4-2.6,1.8-4.3c0.4-1.6,0.6-3.4,0.6-5.3v-53.4h4.3v53.2c0,2.6-0.3,4.9-0.8,7s-1.4,4-2.6,5.6
		s-2.8,2.9-4.7,3.8c-1.9,0.9-4.2,1.4-6.9,1.4c-2.7,0-5-0.5-6.9-1.4s-3.5-2.2-4.7-3.8s-2.1-3.5-2.7-5.6s-0.9-4.5-0.9-7v-53.2h4.6
		v53.4H347.1z"/>
	<path class="st1" d="M395.2,181.5c5.4,0,9.2,1.4,11.6,4.2c2.3,2.8,3.5,6.7,3.5,11.7v6.1c0,8.2-3.4,13-10.2,14.6
		c3.6,0.8,6.2,2.4,7.8,4.9c1.6,2.5,2.4,5.6,2.4,9.5v11c0,1.5,0.1,3,0.3,4.5c0.2,1.5,0.7,2.8,1.4,4h-4.8c-0.6-1.1-1-2.3-1.2-3.6
		s-0.3-2.9-0.3-4.9v-11.1c0-2.3-0.3-4.3-0.9-5.8s-1.5-2.8-2.7-3.7s-2.6-1.5-4.2-1.9s-3.4-0.6-5.4-0.6h-7.3v31.5h-4.6v-70.4H395.2z
		 M392.6,216.2c2.1,0,3.9-0.2,5.5-0.5s3-0.9,4.1-1.8c1.1-0.9,2-2.1,2.6-3.6s0.9-3.5,0.9-5.8v-6.6c0-3.8-0.8-6.8-2.4-8.9
		c-1.6-2.1-4.3-3.2-8.2-3.2h-10v30.5L392.6,216.2L392.6,216.2z"/>
	<path class="st1" d="M74.6,284.2c2.7,0,5,0.4,7,1.3c2,0.8,3.6,2,4.9,3.6c1.3,1.5,2.2,3.4,2.8,5.5c0.6,2.1,0.9,4.5,0.9,7.1v35.4
		c0,2.6-0.3,5-0.9,7.1s-1.5,4-2.8,5.5s-2.9,2.7-4.9,3.6c-2,0.8-4.3,1.3-7,1.3H59.1v-70.4H74.6z M74.5,350.4c4,0,6.8-1.2,8.5-3.6
		s2.6-5.6,2.6-9.5v-35.8c0-3.9-0.9-7-2.6-9.5c-1.7-2.4-4.6-3.6-8.5-3.6H63.8v62H74.5z"/>
	<path class="st1" d="M104.5,339.1l-3.5,15.6h-4.2l15.4-70.5h6.7l15.7,70.5H130l-3.5-15.6H104.5z M105.2,335h20.5l-10.4-45.6
		L105.2,335z"/>
	<path class="st1" d="M151.2,327.6l-15.8-43.4h4.8l13.5,37l13.5-37h4.5l-15.9,43.4v27.1h-4.6V327.6z"/>
	<path class="st1" d="M211,354.7h-6.4l-11.4-70.4h4.5l10.6,64.2l10.3-63.9h4.9l9.9,63.7l10.2-64h4.1l-11.3,70.4h-6l-9.5-57.7
		L211,354.7z"/>
	<path class="st1" d="M259.4,284.2v70.4h-4.6v-70.4H259.4z"/>
	<path class="st1" d="M279.3,354.7v-66.2H265v-4.2h33.3v4.2h-14.4v66.2H279.3z"/>
	<path class="st1" d="M308.7,321.6v33.1h-4.6v-70.4h4.6v33.1h21.9v-33.1h4.7v70.4h-4.7v-33.1H308.7z"/>
	<path class="st1" d="M363.4,337.7c0,1.9,0.2,3.6,0.6,5.3c0.4,1.6,1,3.1,1.8,4.3c0.8,1.2,1.9,2.1,3.3,2.8c1.3,0.7,3,1,4.9,1
		s3.6-0.3,4.9-1s2.4-1.6,3.3-2.8c0.8-1.2,1.4-2.6,1.8-4.3c0.4-1.6,0.6-3.4,0.6-5.3v-53.4h4.3v53.2c0,2.5-0.3,4.9-0.8,7
		s-1.4,4-2.6,5.6s-2.8,2.9-4.7,3.8c-1.9,0.9-4.2,1.4-6.9,1.4c-2.7,0-5-0.5-6.9-1.4s-3.5-2.2-4.7-3.8c-1.2-1.6-2.1-3.5-2.7-5.6
		s-0.9-4.5-0.9-7v-53.2h4.6v53.4H363.4z"/>
	<path class="st1" d="M411.5,283.6c2.7,0,5,0.4,6.8,1.3c1.9,0.9,3.4,2.1,4.6,3.7s2.1,3.4,2.7,5.6c0.6,2.1,0.9,4.5,0.9,7v1.5h-4.4
		v-1.8c0-1.9-0.2-3.6-0.6-5.2s-1-3-1.8-4.1c-0.8-1.2-1.9-2.1-3.3-2.8c-1.3-0.7-3-1-4.8-1c-3.8,0-6.5,1.2-8.1,3.7
		c-1.6,2.4-2.4,5.6-2.4,9.3c0,2.9,0.6,5.3,1.9,7.3c1.2,2,2.8,3.8,4.7,5.5c1.9,1.6,4,3.2,6.1,4.7c2.2,1.5,4.2,3.2,6.1,4.9
		s3.5,3.8,4.7,6.1c1.2,2.3,1.9,5,1.9,8.3c0,2.5-0.3,4.9-0.9,7s-1.5,4-2.7,5.6s-2.8,2.8-4.7,3.7c-1.9,0.9-4.2,1.3-6.9,1.3
		c-2.7,0-5-0.4-6.9-1.3s-3.5-2.1-4.7-3.7s-2.1-3.4-2.7-5.6c-0.6-2.1-0.9-4.5-0.9-7V334h4.4v3.9c0,3.8,0.8,6.9,2.4,9.3
		s4.4,3.7,8.3,3.7s6.6-1.2,8.3-3.7c1.6-2.4,2.4-5.5,2.4-9.3c0-2.8-0.6-5.2-1.9-7.2c-1.2-2-2.8-3.8-4.7-5.5c-1.9-1.6-4-3.2-6.1-4.7
		c-2.2-1.5-4.2-3.1-6.1-4.9s-3.5-3.8-4.7-6.1c-1.2-2.3-1.9-5.1-1.9-8.4c0-5.3,1.2-9.5,3.6-12.7C402.5,285.3,406.3,283.7,411.5,283.6
		z"/>
	<path class="st1" d="M438.1,345.8v8.9h-4.5v-8.9H438.1z"/>
</g>
<g class="st2">
	<path class="st3" d="M60.2,387.6c0,0.4,0,0.7,0.1,1.1s0.2,0.6,0.4,0.9c0.2,0.2,0.4,0.4,0.7,0.6c0.3,0.1,0.6,0.2,1,0.2
		s0.7-0.1,1-0.2s0.5-0.3,0.7-0.6c0.2-0.2,0.3-0.5,0.4-0.9c0.1-0.3,0.1-0.7,0.1-1.1v-10.7h0.9v10.6c0,0.5-0.1,1-0.2,1.4
		s-0.3,0.8-0.5,1.1c-0.2,0.3-0.6,0.6-0.9,0.8s-0.8,0.3-1.4,0.3c-0.5,0-1-0.1-1.4-0.3s-0.7-0.4-0.9-0.8c-0.2-0.3-0.4-0.7-0.5-1.1
		s-0.2-0.9-0.2-1.4v-10.6h0.9v10.7H60.2z"/>
	<path class="st3" d="M67.8,391H67v-14.1h1.2l4.2,11.9v-11.9h0.8V391h-1l-4.4-12.6C67.8,378.4,67.8,391,67.8,391z"/>
	<path class="st3" d="M74.8,391v-14.1h0.9v13.2h4.4v0.8h-5.3V391z"/>
	<path class="st3" d="M82.4,376.9V391h-0.9v-14.1H82.4z"/>
	<path class="st3" d="M88.8,391h-0.9l-3-12.5V391h-0.8v-14.1h1.3l3,12.5l2.9-12.5h1.3V391h-0.9v-12.5L88.8,391z"/>
	<path class="st3" d="M95.1,376.9V391h-0.9v-14.1H95.1z"/>
	<path class="st3" d="M99.1,391v-13.2h-2.9V377h6.7v0.8H100V391H99.1z"/>
	<path class="st3" d="M108.8,383.4v0.8H105v5.9h4.6v0.8H104v-14.1h5.6v0.8H105v5.7h3.8V383.4z"/>
	<path class="st3" d="M114.2,376.9c0.5,0,1,0.1,1.4,0.3s0.7,0.4,1,0.7s0.4,0.7,0.6,1.1s0.2,0.9,0.2,1.4v7.1c0,0.5-0.1,1-0.2,1.4
		s-0.3,0.8-0.6,1.1s-0.6,0.5-1,0.7s-0.9,0.3-1.4,0.3h-3.1v-14.1H114.2z M114.2,390.1c0.8,0,1.4-0.2,1.7-0.7c0.3-0.5,0.5-1.1,0.5-1.9
		v-7.2c0-0.8-0.2-1.4-0.5-1.9s-0.9-0.7-1.7-0.7H112v12.4L114.2,390.1L114.2,390.1z"/>
	<path class="st3" d="M125.1,376.9c0.5,0,1,0.1,1.4,0.3s0.7,0.4,1,0.7s0.4,0.7,0.6,1.1c0.2,0.4,0.2,0.9,0.2,1.4v7.1
		c0,0.5-0.1,1-0.2,1.4s-0.3,0.8-0.6,1.1s-0.6,0.5-1,0.7s-0.9,0.3-1.4,0.3H122v-14.1H125.1z M125.1,390.1c0.8,0,1.4-0.2,1.7-0.7
		c0.3-0.5,0.5-1.1,0.5-1.9v-7.2c0-0.8-0.2-1.4-0.5-1.9s-0.9-0.7-1.7-0.7h-2.2v12.4L125.1,390.1L125.1,390.1z"/>
	<path class="st3" d="M131.1,387.9l-0.7,3.1h-0.8l3.1-14.1h1.3l3.1,14.1h-0.9l-0.7-3.1H131.1z M131.2,387.1h4.1l-2.1-9.1
		L131.2,387.1z"/>
	<path class="st3" d="M140.1,391v-13.2h-2.9V377h6.7v0.8H141V391H140.1z"/>
	<path class="st3" d="M145.7,387.9L145,391h-0.8l3.1-14.1h1.3l3.1,14.1h-0.9l-0.7-3.1H145.7z M145.8,387.1h4.1l-2.1-9.1L145.8,387.1
		z"/>
	<path class="st3" d="M157.5,387.9l-0.7,3.1H156l3.1-14.1h1.3l3.1,14.1h-0.9l-0.7-3.1H157.5z M157.7,387.1h4.1l-2.1-9.1L157.7,387.1
		z"/>
	<path class="st3" d="M165.8,391H165v-14.1h1.2l4.2,11.9v-11.9h0.8V391h-1l-4.4-12.6V391z"/>
	<path class="st3" d="M175.9,376.9c0.5,0,1,0.1,1.4,0.3s0.7,0.4,1,0.7s0.4,0.7,0.6,1.1s0.2,0.9,0.2,1.4v7.1c0,0.5-0.1,1-0.2,1.4
		s-0.3,0.8-0.6,1.1s-0.6,0.5-1,0.7s-0.9,0.3-1.4,0.3h-3.1v-14.1H175.9z M175.9,390.1c0.8,0,1.4-0.2,1.7-0.7s0.5-1.1,0.5-1.9v-7.2
		c0-0.8-0.2-1.4-0.5-1.9s-0.9-0.7-1.7-0.7h-2.2v12.4L175.9,390.1L175.9,390.1z"/>
	<path class="st3" d="M186.6,376.8c0.5,0,1,0.1,1.4,0.3c0.4,0.2,0.7,0.4,0.9,0.7c0.2,0.3,0.4,0.7,0.5,1.1s0.2,0.9,0.2,1.4v0.3h-0.9
		v-0.4c0-0.4,0-0.7-0.1-1s-0.2-0.6-0.4-0.8c-0.2-0.2-0.4-0.4-0.7-0.6c-0.3-0.1-0.6-0.2-1-0.2c-0.8,0-1.3,0.2-1.6,0.7
		s-0.5,1.1-0.5,1.9c0,0.6,0.1,1.1,0.4,1.5c0.2,0.4,0.6,0.8,0.9,1.1c0.4,0.3,0.8,0.6,1.2,0.9s0.8,0.6,1.2,1s0.7,0.8,0.9,1.2
		c0.2,0.5,0.4,1,0.4,1.7c0,0.5-0.1,1-0.2,1.4c-0.1,0.4-0.3,0.8-0.5,1.1c-0.2,0.3-0.6,0.6-0.9,0.7s-0.8,0.3-1.4,0.3s-1-0.1-1.4-0.3
		s-0.7-0.4-0.9-0.7c-0.2-0.3-0.4-0.7-0.5-1.1s-0.2-0.9-0.2-1.4v-0.7h0.9v0.8c0,0.8,0.2,1.4,0.5,1.9s0.9,0.7,1.6,0.7
		c0.8,0,1.3-0.2,1.6-0.7s0.5-1.1,0.5-1.9c0-0.6-0.1-1-0.4-1.4c-0.2-0.4-0.6-0.8-0.9-1.1c-0.4-0.3-0.8-0.6-1.2-0.9s-0.8-0.6-1.2-1
		s-0.7-0.8-0.9-1.2s-0.4-1-0.4-1.7c0-1.1,0.2-1.9,0.7-2.5C184.8,377.1,185.6,376.8,186.6,376.8z"/>
	<path class="st3" d="M194.1,376.9c1.1,0,1.9,0.3,2.3,0.9c0.5,0.6,0.7,1.5,0.7,2.5v1.5c0,1.1-0.3,2-0.8,2.5s-1.3,0.8-2.5,0.8H192
		v5.8h-0.9v-14.1h3V376.9z M193.8,384.4c0.8,0,1.4-0.2,1.8-0.6c0.4-0.4,0.6-1,0.6-1.9v-1.7c0-0.8-0.2-1.4-0.5-1.8
		c-0.3-0.5-0.8-0.7-1.6-0.7h-2v6.6h1.7V384.4z"/>
	<path class="st3" d="M203.2,383.4v0.8h-3.8v5.9h4.6v0.8h-5.6v-14.1h5.6v0.8h-4.6v5.7h3.8V383.4z"/>
	<path class="st3" d="M210.3,383.4v0.8h-3.8v5.9h4.6v0.8h-5.6v-14.1h5.6v0.8h-4.6v5.7h3.8V383.4z"/>
	<path class="st3" d="M215.7,376.9c0.5,0,1,0.1,1.4,0.3s0.7,0.4,1,0.7s0.4,0.7,0.6,1.1s0.2,0.9,0.2,1.4v7.1c0,0.5-0.1,1-0.2,1.4
		s-0.3,0.8-0.6,1.1s-0.6,0.5-1,0.7s-0.9,0.3-1.4,0.3h-3.1v-14.1H215.7z M215.7,390.1c0.8,0,1.4-0.2,1.7-0.7s0.5-1.1,0.5-1.9v-7.2
		c0-0.8-0.2-1.4-0.5-1.9s-0.9-0.7-1.7-0.7h-2.2v12.4L215.7,390.1L215.7,390.1z"/>
	<path class="st3" d="M228,383.8v0.8h-3.6v6.4h-0.9v-14.1h5.4v0.8h-4.4v6h3.5V383.8z"/>
	<path class="st3" d="M230.2,380.3c0-0.5,0.1-1,0.2-1.4c0.1-0.4,0.3-0.8,0.6-1.1c0.2-0.3,0.6-0.6,1-0.7c0.4-0.2,0.9-0.3,1.4-0.3
		s1,0.1,1.4,0.3s0.7,0.4,1,0.7c0.3,0.3,0.4,0.7,0.6,1.1c0.1,0.4,0.2,0.9,0.2,1.4v7.2c0,0.5-0.1,1-0.2,1.4s-0.3,0.8-0.6,1.1
		c-0.3,0.3-0.6,0.6-1,0.7s-0.9,0.3-1.4,0.3s-1-0.1-1.4-0.3c-0.4-0.2-0.7-0.4-1-0.7c-0.2-0.3-0.4-0.7-0.6-1.1
		c-0.1-0.4-0.2-0.9-0.2-1.4V380.3z M231.1,387.6c0,0.8,0.2,1.4,0.5,1.9s0.9,0.8,1.7,0.8s1.3-0.3,1.7-0.8c0.3-0.5,0.5-1.1,0.5-1.9
		v-7.3c0-0.8-0.2-1.4-0.5-1.9s-0.9-0.8-1.7-0.8s-1.3,0.3-1.7,0.8s-0.5,1.1-0.5,1.9V387.6z"/>
	<path class="st3" d="M240.8,376.9c1.1,0,1.8,0.3,2.3,0.8c0.5,0.6,0.7,1.3,0.7,2.3v1.2c0,1.6-0.7,2.6-2,2.9c0.7,0.2,1.2,0.5,1.6,1
		c0.3,0.5,0.5,1.1,0.5,1.9v2.2c0,0.3,0,0.6,0.1,0.9c0,0.3,0.1,0.6,0.3,0.8h-1c-0.1-0.2-0.2-0.5-0.2-0.7s-0.1-0.6-0.1-1V387
		c0-0.5-0.1-0.9-0.2-1.2c-0.1-0.3-0.3-0.6-0.5-0.7c-0.2-0.2-0.5-0.3-0.8-0.4s-0.7-0.1-1.1-0.1h-1.5v6.3H238v-14.1h2.8V376.9z
		 M240.3,383.9c0.4,0,0.8,0,1.1-0.1s0.6-0.2,0.8-0.4c0.2-0.2,0.4-0.4,0.5-0.7c0.1-0.3,0.2-0.7,0.2-1.2v-1.3c0-0.8-0.2-1.4-0.5-1.8
		s-0.9-0.6-1.6-0.6h-2v6.1H240.3z"/>
	<path class="st3" d="M251.7,385.6l-3.2-8.7h1l2.7,7.4l2.7-7.4h0.9l-3.2,8.7v5.4h-0.9V385.6z"/>
	<path class="st3" d="M256.8,380.3c0-0.5,0.1-1,0.2-1.4s0.3-0.8,0.6-1.1c0.2-0.3,0.6-0.6,1-0.7c0.4-0.2,0.9-0.3,1.4-0.3
		s1,0.1,1.4,0.3s0.7,0.4,1,0.7c0.3,0.3,0.4,0.7,0.6,1.1c0.1,0.4,0.2,0.9,0.2,1.4v7.2c0,0.5-0.1,1-0.2,1.4s-0.3,0.8-0.6,1.1
		c-0.3,0.3-0.6,0.6-1,0.7s-0.9,0.3-1.4,0.3s-1-0.1-1.4-0.3c-0.4-0.2-0.7-0.4-1-0.7c-0.2-0.3-0.4-0.7-0.6-1.1
		c-0.1-0.4-0.2-0.9-0.2-1.4V380.3z M257.7,387.6c0,0.8,0.2,1.4,0.5,1.9s0.9,0.8,1.7,0.8c0.8,0,1.3-0.3,1.7-0.8
		c0.3-0.5,0.5-1.1,0.5-1.9v-7.3c0-0.8-0.2-1.4-0.5-1.9s-0.9-0.8-1.7-0.8c-0.8,0-1.3,0.3-1.7,0.8s-0.5,1.1-0.5,1.9V387.6z"/>
	<path class="st3" d="M265.4,387.6c0,0.4,0,0.7,0.1,1.1s0.2,0.6,0.4,0.9c0.2,0.2,0.4,0.4,0.7,0.6c0.3,0.1,0.6,0.2,1,0.2
		s0.7-0.1,1-0.2s0.5-0.3,0.7-0.6c0.2-0.2,0.3-0.5,0.4-0.9c0.1-0.3,0.1-0.7,0.1-1.1v-10.7h0.9v10.6c0,0.5-0.1,1-0.2,1.4
		s-0.3,0.8-0.5,1.1c-0.2,0.3-0.6,0.6-0.9,0.8s-0.8,0.3-1.4,0.3c-0.5,0-1-0.1-1.4-0.3s-0.7-0.4-0.9-0.8c-0.2-0.3-0.4-0.7-0.5-1.1
		s-0.2-0.9-0.2-1.4v-10.6h0.9v10.7H265.4z"/>
	<path class="st3" d="M275,376.9c1.1,0,1.8,0.3,2.3,0.8c0.5,0.6,0.7,1.3,0.7,2.3v1.2c0,1.6-0.7,2.6-2,2.9c0.7,0.2,1.2,0.5,1.6,1
		c0.3,0.5,0.5,1.1,0.5,1.9v2.2c0,0.3,0,0.6,0.1,0.9c0,0.3,0.1,0.6,0.3,0.8h-1c-0.1-0.2-0.2-0.5-0.2-0.7s-0.1-0.6-0.1-1V387
		c0-0.5-0.1-0.9-0.2-1.2c-0.1-0.3-0.3-0.6-0.5-0.7c-0.2-0.2-0.5-0.3-0.8-0.4s-0.7-0.1-1.1-0.1H273v6.3h-0.9v-14.1h2.9V376.9z
		 M274.5,383.9c0.4,0,0.8,0,1.1-0.1c0.3-0.1,0.6-0.2,0.8-0.4c0.2-0.2,0.4-0.4,0.5-0.7c0.1-0.3,0.2-0.7,0.2-1.2v-1.3
		c0-0.8-0.2-1.4-0.5-1.8s-0.9-0.6-1.6-0.6h-2v6.1H274.5z"/>
	<path class="st3" d="M285.9,376.8c0.5,0,1,0.1,1.4,0.3s0.7,0.4,0.9,0.7c0.2,0.3,0.4,0.7,0.5,1.1s0.2,0.9,0.2,1.4v1H288v-1.1
		c0-0.4,0-0.7-0.1-1s-0.2-0.6-0.4-0.8c-0.2-0.2-0.4-0.4-0.7-0.6c-0.3-0.1-0.6-0.2-1-0.2s-0.7,0.1-1,0.2s-0.5,0.3-0.7,0.6
		c-0.2,0.2-0.3,0.5-0.4,0.8s-0.1,0.7-0.1,1v7.3c0,0.4,0,0.7,0.1,1s0.2,0.6,0.4,0.8c0.2,0.2,0.4,0.4,0.7,0.6c0.3,0.1,0.6,0.2,1,0.2
		s0.7-0.1,1-0.2s0.5-0.3,0.7-0.6c0.2-0.2,0.3-0.5,0.4-0.8s0.1-0.7,0.1-1v-3h-1.9v-0.8h2.8v3.8c0,0.5-0.1,1-0.2,1.4s-0.3,0.8-0.5,1.1
		c-0.2,0.3-0.6,0.6-0.9,0.7s-0.8,0.3-1.4,0.3c-0.5,0-1-0.1-1.4-0.3s-0.7-0.4-0.9-0.7c-0.2-0.3-0.4-0.7-0.5-1.1s-0.2-0.9-0.2-1.4
		v-7.2c0-0.5,0.1-1,0.2-1.4s0.3-0.8,0.5-1.1c0.2-0.3,0.6-0.6,0.9-0.7S285.4,376.8,285.9,376.8z"/>
	<path class="st3" d="M291.8,387.9l-0.7,3.1h-0.8l3.1-14.1h1.3l3.1,14.1h-0.9l-0.7-3.1H291.8z M292,387.1h4.1L294,378L292,387.1z"/>
	<path class="st3" d="M304,391h-0.9l-3-12.5V391h-0.8v-14.1h1.3l3,12.5l2.9-12.5h1.3V391h-0.9v-12.5L304,391z"/>
	<path class="st3" d="M314.2,383.4v0.8h-3.8v5.9h4.6v0.8h-5.6v-14.1h5.6v0.8h-4.6v5.7h3.8V383.4z"/>
	<path class="st3" d="M319.4,376.8c0.5,0,1,0.1,1.4,0.3c0.4,0.2,0.7,0.4,0.9,0.7c0.2,0.3,0.4,0.7,0.5,1.1s0.2,0.9,0.2,1.4v0.3h-0.9
		v-0.4c0-0.4,0-0.7-0.1-1s-0.2-0.6-0.4-0.8c-0.2-0.2-0.4-0.4-0.7-0.6c-0.3-0.1-0.6-0.2-1-0.2c-0.8,0-1.3,0.2-1.6,0.7
		c-0.3,0.5-0.5,1.1-0.5,1.9c0,0.6,0.1,1.1,0.4,1.5c0.2,0.4,0.6,0.8,0.9,1.1c0.4,0.3,0.8,0.6,1.2,0.9c0.4,0.3,0.8,0.6,1.2,1
		s0.7,0.8,0.9,1.2c0.2,0.5,0.4,1,0.4,1.7c0,0.5-0.1,1-0.2,1.4s-0.3,0.8-0.5,1.1c-0.2,0.3-0.6,0.6-0.9,0.7s-0.8,0.3-1.4,0.3
		s-1-0.1-1.4-0.3s-0.7-0.4-0.9-0.7c-0.2-0.3-0.4-0.7-0.5-1.1s-0.2-0.9-0.2-1.4v-0.7h0.9v0.8c0,0.8,0.2,1.4,0.5,1.9s0.9,0.7,1.6,0.7
		c0.8,0,1.3-0.2,1.6-0.7c0.3-0.5,0.5-1.1,0.5-1.9c0-0.6-0.1-1-0.4-1.4c-0.2-0.4-0.6-0.8-0.9-1.1c-0.4-0.3-0.8-0.6-1.2-0.9
		c-0.4-0.3-0.8-0.6-1.2-1s-0.7-0.8-0.9-1.2s-0.4-1-0.4-1.7c0-1.1,0.2-1.9,0.7-2.5C317.6,377.1,318.4,376.8,319.4,376.8z"/>
	<path class="st3" d="M324.3,391H324v-1.8h0.9v1.7l-0.6,1.6h-0.4L324.3,391z"/>
	<path class="st3" d="M332.6,376.8c0.5,0,1,0.1,1.4,0.3c0.4,0.2,0.7,0.4,0.9,0.7c0.2,0.3,0.4,0.7,0.5,1.1s0.2,0.9,0.2,1.4v0.3h-0.9
		v-0.4c0-0.4,0-0.7-0.1-1s-0.2-0.6-0.4-0.8c-0.2-0.2-0.4-0.4-0.7-0.6c-0.3-0.1-0.6-0.2-1-0.2c-0.8,0-1.3,0.2-1.6,0.7
		c-0.3,0.5-0.5,1.1-0.5,1.9c0,0.6,0.1,1.1,0.4,1.5c0.2,0.4,0.6,0.8,0.9,1.1c0.4,0.3,0.8,0.6,1.2,0.9c0.4,0.3,0.8,0.6,1.2,1
		s0.7,0.8,0.9,1.2c0.2,0.5,0.4,1,0.4,1.7c0,0.5-0.1,1-0.2,1.4s-0.3,0.8-0.5,1.1c-0.2,0.3-0.6,0.6-0.9,0.7s-0.8,0.3-1.4,0.3
		s-1-0.1-1.4-0.3s-0.7-0.4-0.9-0.7c-0.2-0.3-0.4-0.7-0.5-1.1s-0.2-0.9-0.2-1.4v-0.7h0.9v0.8c0,0.8,0.2,1.4,0.5,1.9s0.9,0.7,1.6,0.7
		c0.8,0,1.3-0.2,1.6-0.7c0.3-0.5,0.5-1.1,0.5-1.9c0-0.6-0.1-1-0.4-1.4c-0.2-0.4-0.6-0.8-0.9-1.1c-0.4-0.3-0.8-0.6-1.2-0.9
		c-0.4-0.3-0.8-0.6-1.2-1s-0.7-0.8-0.9-1.2s-0.4-1-0.4-1.7c0-1.1,0.2-1.9,0.7-2.5C330.8,377.1,331.5,376.8,332.6,376.8z"/>
	<path class="st3" d="M338,387.6c0,0.4,0,0.7,0.1,1.1s0.2,0.6,0.4,0.9c0.2,0.2,0.4,0.4,0.7,0.6c0.3,0.1,0.6,0.2,1,0.2s0.7-0.1,1-0.2
		s0.5-0.3,0.7-0.6c0.2-0.2,0.3-0.5,0.4-0.9c0.1-0.3,0.1-0.7,0.1-1.1v-10.7h0.9v10.6c0,0.5-0.1,1-0.2,1.4s-0.3,0.8-0.5,1.1
		c-0.2,0.3-0.6,0.6-0.9,0.8s-0.8,0.3-1.4,0.3c-0.5,0-1-0.1-1.4-0.3s-0.7-0.4-0.9-0.8c-0.2-0.3-0.4-0.7-0.5-1.1s-0.2-0.9-0.2-1.4
		v-10.6h0.9v10.7H338z"/>
	<path class="st3" d="M347.6,376.9c1.1,0,1.8,0.3,2.3,0.8c0.5,0.6,0.7,1.3,0.7,2.3v1.2c0,1.6-0.7,2.6-2,2.9c0.7,0.2,1.2,0.5,1.6,1
		c0.3,0.5,0.5,1.1,0.5,1.9v2.2c0,0.3,0,0.6,0.1,0.9c0,0.3,0.1,0.6,0.3,0.8h-1c-0.1-0.2-0.2-0.5-0.2-0.7s-0.1-0.6-0.1-1V387
		c0-0.5-0.1-0.9-0.2-1.2c-0.1-0.3-0.3-0.6-0.5-0.7c-0.2-0.2-0.5-0.3-0.8-0.4s-0.7-0.1-1.1-0.1h-1.5v6.3h-0.9v-14.1h2.8L347.6,376.9
		L347.6,376.9z M347.1,383.9c0.4,0,0.8,0,1.1-0.1c0.3-0.1,0.6-0.2,0.8-0.4c0.2-0.2,0.4-0.4,0.5-0.7c0.1-0.3,0.2-0.7,0.2-1.2v-1.3
		c0-0.8-0.2-1.4-0.5-1.8s-0.9-0.6-1.6-0.6h-2v6.1H347.1z"/>
	<path class="st3" d="M357,383.8v0.8h-3.6v6.4h-0.9v-14.1h5.4v0.8h-4.4v6h3.5V383.8z"/>
	<path class="st3" d="M360.1,376.9V391h-0.9v-14.1H360.1z"/>
	<path class="st3" d="M362.6,391h-0.8v-14.1h1.2l4.2,11.9v-11.9h0.8V391h-1l-4.4-12.6L362.6,391L362.6,391z"/>
	<path class="st3" d="M372.6,376.8c0.5,0,1,0.1,1.4,0.3s0.7,0.4,0.9,0.7c0.2,0.3,0.4,0.7,0.5,1.1s0.2,0.9,0.2,1.4v1h-0.9v-1.1
		c0-0.4,0-0.7-0.1-1s-0.2-0.6-0.4-0.8c-0.2-0.2-0.4-0.4-0.7-0.6c-0.3-0.1-0.6-0.2-1-0.2s-0.7,0.1-1,0.2s-0.5,0.3-0.7,0.6
		c-0.2,0.2-0.3,0.5-0.4,0.8s-0.1,0.7-0.1,1v7.3c0,0.4,0,0.7,0.1,1s0.2,0.6,0.4,0.8c0.2,0.2,0.4,0.4,0.7,0.6c0.3,0.1,0.6,0.2,1,0.2
		s0.7-0.1,1-0.2s0.5-0.3,0.7-0.6c0.2-0.2,0.3-0.5,0.4-0.8s0.1-0.7,0.1-1v-3h-1.9v-0.8h2.8v3.8c0,0.5-0.1,1-0.2,1.4s-0.3,0.8-0.5,1.1
		c-0.2,0.3-0.6,0.6-0.9,0.7s-0.8,0.3-1.4,0.3c-0.5,0-1-0.1-1.4-0.3s-0.7-0.4-0.9-0.7c-0.2-0.3-0.4-0.7-0.5-1.1s-0.2-0.9-0.2-1.4
		v-7.2c0-0.5,0.1-1,0.2-1.4s0.3-0.8,0.5-1.1c0.2-0.3,0.6-0.6,0.9-0.7S372,376.8,372.6,376.8z"/>
	<path class="st3" d="M381.6,387.9l-0.7,3.1h-0.8l3.1-14.1h1.3l3.1,14.1h-0.9l-0.7-3.1H381.6z M381.8,387.1h4.1l-2.1-9.1
		L381.8,387.1z"/>
	<path class="st3" d="M389.9,391h-0.8v-14.1h1.2l4.2,11.9v-11.9h0.8V391h-1l-4.4-12.6L389.9,391L389.9,391z"/>
	<path class="st3" d="M400,376.9c0.5,0,1,0.1,1.4,0.3s0.7,0.4,1,0.7s0.4,0.7,0.6,1.1s0.2,0.9,0.2,1.4v7.1c0,0.5-0.1,1-0.2,1.4
		s-0.3,0.8-0.6,1.1s-0.6,0.5-1,0.7s-0.9,0.3-1.4,0.3h-3.1v-14.1H400z M400,390.1c0.8,0,1.4-0.2,1.7-0.7c0.3-0.5,0.5-1.1,0.5-1.9
		v-7.2c0-0.8-0.2-1.4-0.5-1.9s-0.9-0.7-1.7-0.7h-2.2v12.4L400,390.1L400,390.1z"/>
	<path class="st3" d="M410.7,376.9c1.1,0,1.8,0.3,2.2,0.8c0.4,0.5,0.6,1.3,0.6,2.2v0.8c0,0.8-0.1,1.4-0.4,1.9s-0.7,0.8-1.5,0.9
		c0.8,0.1,1.3,0.5,1.6,1c0.3,0.5,0.5,1.2,0.5,2v1.2c0,1-0.2,1.8-0.7,2.4s-1.3,0.9-2.4,0.9h-3v-14.1L410.7,376.9L410.7,376.9z
		 M410.3,383.1c0.4,0,0.8,0,1.1-0.1c0.3-0.1,0.6-0.2,0.8-0.4s0.3-0.4,0.4-0.7c0.1-0.3,0.1-0.7,0.1-1.1V380c0-0.7-0.1-1.3-0.4-1.7
		s-0.8-0.6-1.5-0.6h-2v5.4L410.3,383.1L410.3,383.1z M410.8,390.1c0.8,0,1.3-0.2,1.7-0.6s0.5-1,0.5-1.8v-1.3c0-0.9-0.2-1.6-0.6-1.9
		s-1-0.6-1.9-0.6h-1.8v6.2L410.8,390.1L410.8,390.1z"/>
	<path class="st3" d="M418.3,376.9c1.1,0,1.8,0.3,2.3,0.8c0.5,0.6,0.7,1.3,0.7,2.3v1.2c0,1.6-0.7,2.6-2,2.9c0.7,0.2,1.2,0.5,1.6,1
		c0.3,0.5,0.5,1.1,0.5,1.9v2.2c0,0.3,0,0.6,0.1,0.9c0,0.3,0.1,0.6,0.3,0.8h-1c-0.1-0.2-0.2-0.5-0.2-0.7s-0.1-0.6-0.1-1V387
		c0-0.5-0.1-0.9-0.2-1.2c-0.1-0.3-0.3-0.6-0.5-0.7c-0.2-0.2-0.5-0.3-0.8-0.4s-0.7-0.1-1.1-0.1h-1.5v6.3h-0.9v-14.1h2.8L418.3,376.9
		L418.3,376.9z M417.8,383.9c0.4,0,0.8,0,1.1-0.1c0.3-0.1,0.6-0.2,0.8-0.4c0.2-0.2,0.4-0.4,0.5-0.7c0.1-0.3,0.2-0.7,0.2-1.2v-1.3
		c0-0.8-0.2-1.4-0.5-1.8s-0.9-0.6-1.6-0.6h-2v6.1H417.8z"/>
	<path class="st3" d="M423.1,380.3c0-0.5,0.1-1,0.2-1.4s0.3-0.8,0.6-1.1c0.2-0.3,0.6-0.6,1-0.7c0.4-0.2,0.9-0.3,1.4-0.3
		s1,0.1,1.4,0.3s0.7,0.4,1,0.7c0.3,0.3,0.4,0.7,0.6,1.1c0.1,0.4,0.2,0.9,0.2,1.4v7.2c0,0.5-0.1,1-0.2,1.4s-0.3,0.8-0.6,1.1
		c-0.3,0.3-0.6,0.6-1,0.7s-0.9,0.3-1.4,0.3s-1-0.1-1.4-0.3c-0.4-0.2-0.7-0.4-1-0.7c-0.2-0.3-0.4-0.7-0.6-1.1
		c-0.1-0.4-0.2-0.9-0.2-1.4V380.3z M424,387.6c0,0.8,0.2,1.4,0.5,1.9s0.9,0.8,1.7,0.8c0.8,0,1.3-0.3,1.7-0.8
		c0.3-0.5,0.5-1.1,0.5-1.9v-7.3c0-0.8-0.2-1.4-0.5-1.9s-0.9-0.8-1.7-0.8c-0.8,0-1.3,0.3-1.7,0.8s-0.5,1.1-0.5,1.9V387.6z"/>
	<path class="st3" d="M434.2,391h-1.3l-2.3-14.1h0.9l2.1,12.8l2.1-12.8h1l2,12.7l2-12.8h0.8l-2.3,14.1H438l-1.9-11.5L434.2,391z"/>
	<path class="st3" d="M445.9,376.8c0.5,0,1,0.1,1.4,0.3c0.4,0.2,0.7,0.4,0.9,0.7c0.2,0.3,0.4,0.7,0.5,1.1s0.2,0.9,0.2,1.4v0.3H448
		v-0.4c0-0.4,0-0.7-0.1-1s-0.2-0.6-0.4-0.8c-0.2-0.2-0.4-0.4-0.7-0.6c-0.3-0.1-0.6-0.2-1-0.2c-0.8,0-1.3,0.2-1.6,0.7
		c-0.3,0.5-0.5,1.1-0.5,1.9c0,0.6,0.1,1.1,0.4,1.5c0.2,0.4,0.6,0.8,0.9,1.1c0.4,0.3,0.8,0.6,1.2,0.9c0.4,0.3,0.8,0.6,1.2,1
		s0.7,0.8,0.9,1.2c0.2,0.5,0.4,1,0.4,1.7c0,0.5-0.1,1-0.2,1.4s-0.3,0.8-0.5,1.1c-0.2,0.3-0.6,0.6-0.9,0.7s-0.8,0.3-1.4,0.3
		s-1-0.1-1.4-0.3s-0.7-0.4-0.9-0.7c-0.2-0.3-0.4-0.7-0.5-1.1s-0.2-0.9-0.2-1.4v-0.7h0.9v0.8c0,0.8,0.2,1.4,0.5,1.9s0.9,0.7,1.6,0.7
		c0.8,0,1.3-0.2,1.6-0.7c0.3-0.5,0.5-1.1,0.5-1.9c0-0.6-0.1-1-0.4-1.4c-0.2-0.4-0.6-0.8-0.9-1.1c-0.4-0.3-0.8-0.6-1.2-0.9
		c-0.4-0.3-0.8-0.6-1.2-1s-0.7-0.8-0.9-1.2s-0.4-1-0.4-1.7c0-1.1,0.2-1.9,0.7-2.5C444.1,377.1,444.9,376.8,445.9,376.8z"/>
	<path class="st3" d="M451.3,376.9V391h-0.9v-14.1H451.3z"/>
	<path class="st3" d="M453.8,391H453v-14.1h1.2l4.2,11.9v-11.9h0.8V391h-1l-4.4-12.6L453.8,391L453.8,391z"/>
	<path class="st3" d="M463.8,376.8c0.5,0,1,0.1,1.4,0.3s0.7,0.4,0.9,0.7c0.2,0.3,0.4,0.7,0.5,1.1s0.2,0.9,0.2,1.4v1h-0.9v-1.1
		c0-0.4,0-0.7-0.1-1s-0.2-0.6-0.4-0.8c-0.2-0.2-0.4-0.4-0.7-0.6c-0.3-0.1-0.6-0.2-1-0.2s-0.7,0.1-1,0.2s-0.5,0.3-0.7,0.6
		c-0.2,0.2-0.3,0.5-0.4,0.8s-0.1,0.7-0.1,1v7.3c0,0.4,0,0.7,0.1,1s0.2,0.6,0.4,0.8c0.2,0.2,0.4,0.4,0.7,0.6c0.3,0.1,0.6,0.2,1,0.2
		s0.7-0.1,1-0.2s0.5-0.3,0.7-0.6c0.2-0.2,0.3-0.5,0.4-0.8s0.1-0.7,0.1-1v-3H464v-0.8h2.8v3.8c0,0.5-0.1,1-0.2,1.4s-0.3,0.8-0.5,1.1
		c-0.2,0.3-0.6,0.6-0.9,0.7s-0.8,0.3-1.4,0.3c-0.5,0-1-0.1-1.4-0.3s-0.7-0.4-0.9-0.7c-0.2-0.3-0.4-0.7-0.5-1.1s-0.2-0.9-0.2-1.4
		v-7.2c0-0.5,0.1-1,0.2-1.4s0.3-0.8,0.5-1.1c0.2-0.3,0.6-0.6,0.9-0.7S463.3,376.8,463.8,376.8z"/>
	<path class="st3" d="M469.1,389.2v1.8h-0.9v-1.8H469.1z"/>
</g>
<rect x="571" y="108.4" transform="matrix(0.866 -0.5 0.5 0.866 6.8966 326.7146)" class="st4" width="84.2" height="84.2"/>
<rect x="225.3" y="556.5" transform="matrix(0.4497 -0.8932 0.8932 0.4497 -387.5369 568.2963)" class="st4" width="84.2" height="84.2"/>
<rect x="627" y="102.4" transform="matrix(0.866 -0.5 0.5 0.866 17.3996 353.9113)" class="st4" width="84.2" height="84.2"/>
<rect x="192" y="505.4" transform="matrix(0.8843 -0.4669 0.4669 0.8843 -220.4762 159.2314)" class="st4" width="38.3" height="38.3"/>
<rect x="603.9" y="571.9" transform="matrix(0.9598 -0.2806 0.2806 0.9598 -140.0675 197.5687)" class="st4" width="32" height="32"/>
<rect x="652.6" y="529.2" transform="matrix(5.750602e-02 -0.9983 0.9983 5.750602e-02 85.6568 1186.9507)" class="st4" width="37.8" height="37.8"/>
<rect x="39.8" y="68.6" transform="matrix(0.2236 -0.9747 0.9747 0.2236 -40.993 136.9971)" class="st4" width="51.3" height="51.3"/>
<rect x="168.8" y="58" transform="matrix(0.2236 -0.9747 0.9747 0.2236 71.2069 238.3778)" class="st4" width="32.9" height="32.9"/>
</svg>
