<?xml version="1.0" encoding="utf-8"?>
<!-- Generator: Adobe Illustrator 21.0.1, SVG Export Plug-In . SVG Version: 6.00 Build 0)  -->
<svg version="1.1" id="Layer_1" xmlns="http://www.w3.org/2000/svg" xmlns:xlink="http://www.w3.org/1999/xlink" x="0px" y="0px"
	 viewBox="0 0 267 245.6" style="enable-background:new 0 0 267 245.6;" xml:space="preserve">
<style type="text/css">
	.st0{fill:url(#SVGID_1_);}
	.st1{opacity:0.49;fill:none;stroke:#000000;stroke-miterlimit:10;enable-background:new    ;}
	.st2{fill:#8C8C8C;}
	.st3{fill:url(#SVGID_2_);}
	.st4{fill:url(#SVGID_3_);}
</style>
<g id="Layer_14">
	
		<linearGradient id="SVGID_1_" gradientUnits="userSpaceOnUse" x1="54.8559" y1="-716.2" x2="67.2559" y2="-716.2" gradientTransform="matrix(1 0 0 1 0 736)">
		<stop  offset="0" style="stop-color:#63E2FF"/>
		<stop  offset="1" style="stop-color:#B066FE"/>
	</linearGradient>
	<ellipse class="st0" cx="61.1" cy="19.8" rx="6.2" ry="6.2"/>
	<ellipse transform="matrix(0.9363 -0.3512 0.3512 0.9363 -2.4515 21.8834)" class="st1" cx="59.1" cy="17.7" rx="6.2" ry="6.2"/>
	<path class="st2" d="M249.9,14.3L249.9,14.3c-0.3,0.2-0.7,0.1-0.8-0.2l-2.8-5.3c-0.2-0.3-0.1-0.7,0.2-0.8l0,0
		c0.3-0.2,0.7-0.1,0.8,0.2l2.8,5.3C250.3,13.8,250.2,14.1,249.9,14.3z"/>
	<path class="st2" d="M245.1,12.8L245.1,12.8c-0.2-0.3-0.1-0.7,0.2-0.8l5.3-2.8c0.3-0.2,0.7-0.1,0.8,0.2l0,0
		c0.2,0.3,0.1,0.7-0.2,0.8l-5.4,2.8C245.6,13.2,245.2,13.1,245.1,12.8z"/>
</g>
<linearGradient id="SVGID_2_" gradientUnits="userSpaceOnUse" x1="200.8559" y1="-716.3" x2="213.2559" y2="-716.3" gradientTransform="matrix(-1 0 0 1 414.1978 736)">
	<stop  offset="0" style="stop-color:#63E2FF"/>
	<stop  offset="1" style="stop-color:#B066FE"/>
</linearGradient>
<ellipse class="st3" cx="207.1" cy="19.7" rx="6.2" ry="6.2"/>
<ellipse transform="matrix(0.3512 -0.9363 0.9363 0.3512 119.1789 207.1946)" class="st1" cx="209.1" cy="17.6" rx="6.2" ry="6.2"/>
<g id="Layer_2_2_">
	
		<linearGradient id="SVGID_3_" gradientUnits="userSpaceOnUse" x1="-300.2668" y1="-344.0923" x2="-77" y2="-344.0923" gradientTransform="matrix(1 0 0 1 0 530)">
		<stop  offset="0" style="stop-color:#A343FF"/>
		<stop  offset="1" style="stop-color:#4CABFD"/>
		<stop  offset="1" style="stop-color:#E93E3A"/>
	</linearGradient>
	<path class="st4" d="M-130,309.6c1.6-5.9,3.3-11.8,3.1-17.9c-0.6-18.2-16.8-31.8-22.4-49c-2.8-8.6-2.9-18-0.2-26.6
		c6.3-20.2,26.4-34,32.2-54.3c3.8-13.1,0.7-28-7.9-38.6c-5.3-6.3-12.8-12.4-12.3-20.6c0.5-8.5,9.6-13.8,17.9-15.5
		c8.3-1.7,17.4-1.6,24.6-6.1c7.4-4.6,11.2-13.2,14.3-21.3c3.3-8.9,6-19.4,0.8-27.4c-5.6-8.6-17.6-9.8-27.9-10.1
		c-48.7-1.2-99-0.2-143.9,18.8c-12.5,5.3-24.8,12.2-32.9,23c-4.4,5.9-7.4,12.7-9.7,19.7c-6.9,20.8-7.8,43.4-2.7,64.7
		c3.7,15.3,10.4,29.6,17,43.9c14.9,31.9,29.8,63.9,49.3,93.4c9.7,14.7,20.4,28.6,32.6,41.3c9.3,9.7,24.6,27.4,39.7,21.8
		C-141.6,342.4-134.5,325.6-130,309.6z"/>
</g>
</svg>
