<?xml version="1.0" encoding="utf-8"?>
<!-- Generator: Adobe Illustrator 21.0.1, SVG Export Plug-In . SVG Version: 6.00 Build 0)  -->
<svg version="1.1" id="Layer_1" xmlns="http://www.w3.org/2000/svg" xmlns:xlink="http://www.w3.org/1999/xlink" x="0px" y="0px"
	 viewBox="0 0 250 54.7" style="enable-background:new 0 0 250 54.7;" xml:space="preserve">
<style type="text/css">
	.st0{fill:url(#SVGID_1_);}
	.st1{fill:url(#SVGID_2_);}
	.st2{fill:url(#SVGID_3_);}
</style>
<linearGradient id="SVGID_1_" gradientUnits="userSpaceOnUse" x1="159.8542" y1="-43.2974" x2="82.1458" y2="91.2974">
	<stop  offset="6.810900e-04" style="stop-color:#FC6767"/>
	<stop  offset="0.9997" style="stop-color:#EC008C"/>
</linearGradient>
<path class="st0" d="M232.3,48H9.8C4.4,48,0,43.6,0,38.3V9.8C0,4.4,4.4,0,9.8,0h222.5c5.4,0,9.8,4.4,9.8,9.8v28.5
	C242,43.6,237.6,48,232.3,48z"/>
<linearGradient id="SVGID_2_" gradientUnits="userSpaceOnUse" x1="167.8542" y1="-36.5974" x2="90.1458" y2="97.9974">
	<stop  offset="6.810900e-04" style="stop-color:#FC6767"/>
	<stop  offset="0.9997" style="stop-color:#EC008C"/>
</linearGradient>
<path class="st1" d="M240.3,54.7H17.8C12.4,54.7,8,50.3,8,45V16.5c0-5.4,4.4-9.8,9.8-9.8h222.5c5.4,0,9.8,4.4,9.8,9.8V45
	C250,50.3,245.6,54.7,240.3,54.7z"/>
<linearGradient id="SVGID_3_" gradientUnits="userSpaceOnUse" x1="125" y1="3.35" x2="125" y2="51.35">
	<stop  offset="0" style="stop-color:#B22D91"/>
	<stop  offset="1" style="stop-color:#312A6C"/>
</linearGradient>
<path class="st2" d="M236.3,51.3H13.8C8.4,51.3,4,47,4,41.6V13.1c0-5.4,4.4-9.8,9.8-9.8h222.5c5.4,0,9.8,4.4,9.8,9.8v28.5
	C246,47,241.6,51.3,236.3,51.3z"/>
</svg>
